<?xml version="1.0" encoding="utf-8"?>
<!-- Generator: Adobe Illustrator 23.0.1, SVG Export Plug-In . SVG Version: 6.00 Build 0)  -->
<svg version="1.1" id="Layer_1" xmlns="http://www.w3.org/2000/svg" xmlns:xlink="http://www.w3.org/1999/xlink" x="0px" y="0px"
	 viewBox="0 0 342.67 98.7" style="enable-background:new 0 0 342.67 98.7;" xml:space="preserve">
<style type="text/css">
	.st0{fill:#040404;stroke:#040404;stroke-miterlimit:10;}
	.st1{fill:#050505;}
	.st2{fill:#040404;}
	.st3{fill:#050405;}
	.st4{fill:#050405;stroke:#060506;stroke-width:0.25;stroke-miterlimit:10;}
	.st5{fill:#A96726;}
	.st6{fill:#A8682C;}
	.st7{fill:#A96726;stroke:#060506;stroke-width:0.25;stroke-miterlimit:10;}
	.st8{fill:#A7662A;stroke:#060506;stroke-width:0.25;stroke-miterlimit:10;}
	.st9{fill:#040404;stroke:#000000;stroke-width:0.25;stroke-miterlimit:10;}
	.st10{fill:#A7662A;stroke:#000000;stroke-width:0.25;stroke-miterlimit:10;}
	.st11{fill:#A8682D;}
	.st12{fill:#A6672D;}
	.st13{fill:#A6662B;}
</style>
<path class="st0" d="M81.19,36.15l-0.08,25c0.06,2.53-1.08,4.94-3.07,6.5C67.28,76.53,56.57,85.43,45.9,94.37
	c-0.51,0.46-1.05,0.89-1.61,1.28c-1.29,1.17-3.26,1.14-4.51-0.07c-1.12-0.85-2.16-1.79-3.23-2.71L5.49,66.15
	c-1.56-1.24-2.44-3.14-2.38-5.13V11.36c-0.01-0.6,0.01-1.2,0.08-1.8C3.38,7.43,3.93,6.74,6,6.24c1.79-0.43,3.61-0.78,5.42-1.12
	c11.45-2.2,23.11-3.17,34.77-2.87c10.42,0.32,20.79,1.55,31,3.68c3.36,0.7,4,1.48,4,4.9V36.15L81.19,36.15z M16.61,41.15
	c0.25-0.1,0.49-0.23,0.75-0.31c6.07-1.67,12.04-3.7,17.88-6.06c1.08-0.49,2.09-1.12,3-1.87c1.63-1.28,3.19-2.65,4.76-4
	c1.92-1.79,4.44-2.79,7.06-2.81c0.76-0.09,1.47-0.44,2-1c2.72-2.54,5.36-5.15,8-7.73c0.89-0.85,1.8-1.66,2.73-2.53
	c0.4,0.31,0.79,0.65,1.16,1c2.09,2.39,3.45,5.32,3.93,8.46c0.01,0.43-0.12,0.85-0.36,1.21c-0.47,0.88-1.09,1.68-1.51,2.58
	c-0.93,1.75-1.33,3.73-1.17,5.7c2.12,0.99,4.6,0.75,6.49-0.63c0.39-0.33,0.73-0.77,1.31-0.37c0.12,3.2-0.1,3.52-1.76,5.2
	c-2.7,2.72-5.32,5.53-8,8.24c-1.34,1.23-2.08,3-2,4.82c0,0.64,0,1.28,0.06,1.91c0.16,0.9,0.2,1.82,0.12,2.73
	c-0.31,1.58-0.79,3.11-1.45,4.58c-2.18,4.32-4.95,8.31-8.23,11.87c-0.9,1-1.76,2.08-2.63,3.12c0.8,0.07,1.6,0,2.37-0.2
	c13-3.54,22-11.57,26.66-24.29c0.24-0.64,0.37-1.32,0.38-2V28.5c0-0.44-0.06-0.87-0.19-1.29c-2.65-8.4-8.22-15.57-15.69-20.23
	c-0.39-0.27-0.85-0.43-1.32-0.49c-5.45-0.4-10.9-0.92-16.37-1.11C38.16,5.29,31.73,5.6,25.34,6.32c-1.23,0.02-2.43,0.37-3.49,1
	c-6.79,4.5-11.93,11.07-14.67,18.74c-0.36,0.8-0.61,1.64-0.73,2.51c-0.15,2.95-0.23,5.9-0.22,8.87c0,3.79,0.12,7.59,0.19,11.39
	c-0.01,0.28,0.03,0.56,0.12,0.82c1,2.31,2,4.62,3,6.91c0.3,0.54,0.63,1.06,1,1.55c3.65-0.9,11.27-6.65,13.58-9.86
	c-4.84-3-6.29-4.42-7.59-7.1L16.61,41.15z M45,34.15c1.95,1,4.51-0.94,4.69-3.48c-2.14,0.08-4.01,1.46-4.72,3.48H45z"/>
<path class="st1" d="M105.37,89.55V59.77h233.85v29.78H105.37z M336.69,62.19H108.05c-0.38,1.2-0.31,24,0.07,24.87h228.6
	L336.69,62.19z"/>
<path class="st2" d="M178.24,33.41l1.51,2.5c1.1,1.8,2.29,3.56,3.29,5.42c2.31,4.29,5.73,7.54,9.56,10.51
	c1.75-1.2,3.1-2.9,3.88-4.88c1.48-4,2.88-8,4.28-11.94c2.07-5.87,4.12-11.75,6.16-17.62c1-2.9,1.2-2.86-1.41-4.54
	c-0.1-0.07-0.18-0.16-0.3-0.26V8.65h20.23c0.93,2.44,1.85,4.89,2.78,7.35l10.65,28.59c0.87,2.55,2.41,4.81,4.45,6.56
	c0.56,0.41,0.86,1.07,0.81,1.76c-0.05,0.91,0,1.82,0,2.78h-24.76v-4l1.87-1.27c0.66-0.37,0.96-1.16,0.7-1.87
	c-0.59-1.81-1.23-3.61-1.86-5.46h-9.34c-0.92,2.15-1.59,4.4-2,6.7l2.32,2.08v3.92h-30.45c-1.6,0-3.2-0.11-4.79-0.25
	c-2.68-0.19-5.1-1.69-6.47-4c-1.07-1.72-2-3.53-3-5.31l-0.33-0.54l-0.31,0.07c0.05,1.2,0.21,2.4,0.47,3.58
	c0.31,0.72,0.83,1.33,1.48,1.76c0.59,0.35,0.94,0.99,0.91,1.68v3h-22.48v-4.13l0.8-0.5c0.96-0.53,1.6-1.5,1.72-2.6
	c0.1-0.75,0.15-1.51,0.15-2.27V17.84c0-0.64-0.08-1.27-0.14-1.91c-0.03-1.11-0.68-2.11-1.67-2.6c-0.68-0.31-1.09-1.02-1-1.76v-3
	h23.76c2.96-0.07,5.9,0.62,8.52,2c7.56,4.07,9.51,15.74,1.45,21.77L178.24,33.41z M189.76,53.21l0.13-0.29
	c-0.31-0.28-0.64-0.54-0.95-0.84c-1.58-1.34-3.07-2.79-4.46-4.34c-1.66-2.2-3.2-4.48-4.61-6.84c-1.74-2.76-3.4-5.58-5.14-8.44
	c0.76-0.42,1.47-0.78,2.15-1.19c6.27-3.75,7-10.63,3.56-15.48c-2.33-3.31-5.79-4.72-9.74-4.76c-7.11-0.09-14.23,0-21.35,0
	c-0.31,0.04-0.62,0.1-0.93,0.18c2.29,1.58,2.8,3.72,2.79,6.1v30.6c0.07,1.87-0.77,3.66-2.25,4.81c-0.15,0.14-0.28,0.28-0.41,0.44
	h17.79c-2.79-1.86-2.92-4.46-2.88-7.15c0.05-3,0-6.08,0-9.12v-1c1.77,2.83,3.3,5.66,4.85,8.49c1,1.89,2.07,3.79,3.17,5.64
	c0.89,1.61,2.5,2.69,4.33,2.9c1.02,0.15,2.05,0.25,3.08,0.28h10.87L189.76,53.21z M221.76,40.6c0.14,0.29,0.29,0.53,0.38,0.78
	c0.69,2,1.38,4,2,6c0.83,1.82,0.15,3.98-1.57,5c-0.22,0.18-0.42,0.39-0.79,0.73h19.56c0-0.21,0-0.3,0-0.35
	c-0.15-0.19-0.31-0.36-0.49-0.52c-1.92-1.82-3.38-4.08-4.24-6.59l-11.59-31c-0.46-1.22-0.94-2.44-1.39-3.6h-15.76l-0.16,0.28
	c0.25,0.18,0.52,0.34,0.77,0.53c1.48,1.08,2.03,3.03,1.31,4.72c-0.15,0.45-0.26,0.92-0.42,1.37c-3.14,8.96-6.28,17.92-9.43,26.88
	c-1,2.88-2.12,5.7-4.43,7.84c-0.08,0.06-0.08,0.2-0.15,0.4h13.1v-0.2c-0.18-0.21-0.38-0.4-0.59-0.58c-1.29-0.88-1.87-2.5-1.41-4
	c0.72-2.6,1.63-5.15,2.46-7.71L221.76,40.6z"/>
<path class="st3" d="M335.72,10.27V24l-1.06-0.65c-2.21-1.36-4.32-2.9-6.82-3.7c-1.67-0.69-3.52-0.86-5.29-0.47
	c-0.56,0.21-1.1,0.46-1.61,0.77c-0.16,0.74,0.22,1.49,0.91,1.81c0.83,0.47,1.69,0.9,2.57,1.27c2.98,1.14,5.85,2.57,8.56,4.26
	c2.53,1.64,4.61,3.87,6.07,6.51c3.37,6.4,1.2,14.67-4.93,19.06c-2.83,1.98-6.13,3.17-9.57,3.47c-6.02,0.67-12.12-0.07-17.8-2.18
	c-0.45-0.16-0.88-0.37-1.42-0.61l-4.09-17.53c0.42,0.3,0.67,0.45,0.9,0.63c2.14,1.67,4.21,3.44,6.44,5c2.94,2.04,6.42,3.19,10,3.29
	c1.08,0,2.15-0.12,3.2-0.36c0.79-0.08,1.44-0.64,1.63-1.41c0.11-0.74-0.26-1.46-0.92-1.81c-1.24-0.8-2.52-1.53-3.83-2.2
	c-2.41-1.25-4.91-2.33-7.26-3.66c-2.95-1.58-5.3-4.08-6.7-7.12c-2.9-6.65-0.36-14.43,5.91-18.08c3.56-1.94,7.58-2.9,11.64-2.77
	c4.22-0.03,8.41,0.73,12.36,2.24C334.99,9.9,335.36,10.07,335.72,10.27z M305.37,42.65c0.57,2.46,1.21,4.72,1.58,7
	c0.13,1.46,1.24,2.64,2.68,2.88c4.56,1.35,9.33,1.84,14.06,1.42c3.23-0.25,6.35-1.32,9.05-3.12c5.31-3.66,7-11.23,3.78-16.48
	c-1.57-2.48-3.78-4.5-6.39-5.85c-2.45-1.33-5-2.36-7.57-3.57c-0.97-0.47-1.9-1.01-2.79-1.61c-1.54-1.22-1.8-3.45-0.58-4.99
	c0.23-0.29,0.5-0.54,0.8-0.74c1.05-0.66,2.25-1.03,3.49-1.07c2.28-0.09,4.55,0.37,6.62,1.34c1,0.46,2,1,3,1.46v-7.38
	c-0.35-0.18-0.71-0.34-1.08-0.47c-1.23-0.34-2.45-0.71-3.7-0.93c-4.69-0.81-9.35-0.93-13.93,0.67c-6.59,2.31-9.67,8.39-7.87,14.86
	c0.76,2.51,2.35,4.69,4.51,6.18c2.67,2,5.79,3.19,8.75,4.67c1.63,0.75,3.16,1.69,4.58,2.78c1.74,1.31,2.09,3.79,0.78,5.53
	c-0.49,0.65-1.18,1.14-1.96,1.39c-1.5,0.54-3.08,0.81-4.67,0.79c-3.04-0.1-6.02-0.87-8.73-2.26
	C308.37,44.41,306.97,43.57,305.37,42.65z"/>
<path class="st3" d="M261.24,57.65c-3.66-1.2-7.34-2.12-10.7-4c-3.12-1.61-5.53-4.32-6.76-7.61c-3.45-9.41-6.94-18.83-10.47-28.25
	c-0.76-2-1.55-4-3.35-5.38V8.59h19.65c0.06,0.12,0.09,0.25,0.11,0.39c-0.36,2.8,0.56,5.36,1.46,7.93l5.94,16.93
	c0.09,0.15,0.19,0.3,0.31,0.43l1.63-4.9c1.33-4,2.67-8,4-12c0.8-2.44,0.62-2.89-1.56-4.18c-0.27-0.16-0.53-0.34-0.79-0.51
	c0-0.29-0.05-0.52-0.05-0.76V8.65h16.81c0.05,1.17-0.04,2.34-0.28,3.49c-5.17,15.05-10.39,30.09-15.66,45.1
	C261.44,57.38,261.34,57.52,261.24,57.65z M274.92,11.09h-11.55c0.17,0.33,0.43,0.61,0.74,0.81c1.39,0.95,2.1,2.63,1.82,4.29
	c-0.09,0.59-0.24,1.17-0.44,1.74c-1.76,5.33-3.53,10.67-5.3,16c-0.88,2.65-1.77,5.29-2.75,8.2c-0.42-1.17-0.76-2.09-1.08-3
	c-1.63-4.63-3.3-9.24-4.87-13.89s-3.59-9.19-4.46-14.14h-14.59c0.24,0.35,0.4,0.55,0.53,0.78c0.83,1.28,1.56,2.61,2.19,4
	c3.5,9.29,7,18.59,10.33,28c1.32,4.14,4.51,7.42,8.61,8.86c1.46,0.54,2.92,1,4.39,1.56c0.4,0.13,0.83,0.19,1.33,0.3L274.92,11.09z"
	/>
<path class="st4" d="M115.61,20.65c-2.04-0.31-4.13,0.17-5.83,1.34c-2,1.33-3.94,2.72-5.91,4.08l-0.9,0.57
	c1.63-6.33,3.21-12.44,4.75-18.41c12.07,0.62,24,0.14,35.88,0.3c0.24,0,0.48,0.02,0.71,0.06c-1.51,6.61-3,13.15-4.51,19.68h-0.23
	c-0.89-2-1.77-3.98-2.66-5.94c-0.59-1.6-2.37-2.41-3.97-1.82c-0.01,0-0.02,0.01-0.03,0.01l-0.14,0.06v23.17
	c0,1.08,0.07,2.16,0.13,3.24c0.07,1.61,0.79,3.12,2,4.19c0.37,0.36,0.6,0.82,0.67,1.33c0.1,1,0,2,0,3.07h-22.6v-4
	c0.14-0.14,0.29-0.27,0.46-0.38c1.5-0.74,2.38-2.34,2.21-4v-26C115.64,21.01,115.63,20.83,115.61,20.65z M141.22,10.99h-31.69
	l-2.47,9.66c3.17-2.31,7.2-3.1,11-2.14c0.03,0.15,0.05,0.31,0.06,0.46v28.68c0.12,2-0.76,3.93-2.35,5.14c-0.08,0-0.11,0.18-0.2,0.34
	h17.72c-2.78-2.55-3-5.65-3-8.88V19.76c0-0.46,0-0.92,0.08-1.47c3.23-0.48,6.31-0.91,8.6,2.37c0.74-3.25,1.4-6.25,2.21-9.65
	L141.22,10.99z"/>
<path class="st2" d="M302.14,55.65h-22.6v-4c0.1-0.12,0.21-0.23,0.34-0.32c1.82-0.83,2.35-2.37,2.35-4.21v-30
	c0-1.71-0.35-3.26-2.11-4.11c-0.35-0.22-0.58-0.59-0.62-1c-0.08-1.14,0-2.28,0-3.46h22.59v4c-0.15,0.15-0.31,0.29-0.49,0.4
	c-1.45,0.69-2.33,2.21-2.2,3.81v29c-0.01,0.76,0.02,1.52,0.09,2.28c0.02,1.26,0.72,2.41,1.84,3c0.44,0.31,0.74,0.78,0.83,1.31
	C302.22,53.45,302.21,54.55,302.14,55.65z M299.66,11.11h-17.52c1.31,1.06,2.17,2.57,2.41,4.24c0.11,0.87,0.17,1.75,0.15,2.63v21.24
	c0,3,0,6.07-0.09,9.11c-0.01,1.62-0.74,3.16-2,4.19c-0.23,0.14-0.48,0.24-0.74,0.3l0.32,0.3h17.56c-2.45-1.68-2.87-3.93-2.86-6.37
	V17.97C296.89,15.41,297.22,12.97,299.66,11.11L299.66,11.11z"/>
<path class="st5" d="M16.61,41.35c1.3,2.68,2.72,4,7.55,7.14c-2.31,3.21-9.93,9-13.58,9.86c-0.37-0.49-0.7-1.01-1-1.55
	c-1-2.29-2-4.6-3-6.91c-0.09-0.26-0.13-0.54-0.12-0.82c-0.07-3.8-0.18-7.6-0.19-11.39c0-2.96,0.07-5.92,0.22-8.87
	c0.12-0.87,0.37-1.71,0.73-2.51c2.74-7.67,7.89-14.24,14.68-18.74c1.06-0.63,2.26-0.98,3.49-1c6.38-0.71,12.8-1.01,19.22-0.91
	c5.47,0.19,10.92,0.71,16.37,1.11c0.47,0.06,0.93,0.22,1.32,0.49c7.47,4.65,13.03,11.8,15.7,20.19c0.13,0.42,0.19,0.85,0.19,1.29V49
	c-0.01,0.68-0.14,1.36-0.38,2c-4.64,12.65-13.6,20.72-26.63,24.26c-0.77,0.2-1.57,0.27-2.37,0.2c0.87-1,1.73-2.1,2.63-3.12
	c3.28-3.57,6.05-7.59,8.22-11.93c0.65-1.45,1.14-2.97,1.45-4.53c0.08-0.91,0.04-1.83-0.12-2.73c0-0.63,0-1.27-0.06-1.91
	c-0.08-1.82,0.66-3.59,2-4.82c2.73-2.71,5.35-5.52,8-8.24c1.66-1.68,1.88-2,1.76-5.2c-0.58-0.4-0.92,0-1.31,0.37
	c-1.89,1.39-4.4,1.64-6.52,0.63c-0.16-1.97,0.24-3.95,1.17-5.7c0.42-0.9,1-1.7,1.51-2.58c0.24-0.36,0.37-0.78,0.36-1.21
	c-0.48-3.14-1.84-6.07-3.93-8.46c-0.33-0.34-0.72-0.62-1.16-1c-0.93,0.87-1.84,1.68-2.73,2.53c-2.68,2.58-5.32,5.19-8,7.73
	c-0.53,0.56-1.24,0.91-2,1c-2.62,0.02-5.14,1.02-7.06,2.81c-1.57,1.37-3.13,2.74-4.76,4c-0.91,0.75-1.92,1.38-3,1.87
	c-5.84,2.38-11.81,4.43-17.89,6.12C17.11,41.12,16.87,41.25,16.61,41.35z"/>
<path class="st6" d="M44.92,33.76c0.7-2.01,2.56-3.39,4.69-3.48C49.43,32.82,46.87,34.77,44.92,33.76z"/>
<path class="st7" d="M336.72,62.19v24.87h-228.6c-0.38-0.86-0.45-23.67-0.07-24.87C108.05,62.19,336.72,62.19,336.72,62.19z
	 M151.28,74.76c0-3.31-1.23-5.56-3.93-7c-3.93-2.05-8.71-1.52-12.09,1.34c-3.14,3.1-3.18,8.16-0.08,11.31c0.31,0.3,0.65,0.58,1,0.83
	c3.14,2.15,7.21,2.42,10.6,0.68C149.63,80.71,151.43,77.85,151.28,74.76z M153.61,74.65c0.13,3.48,1.58,6,4.8,7.43
	c3.04,1.37,6.54,1.24,9.47-0.34c2.87-1.4,4.55-4.46,4.19-7.63c-0.05-3.11-2.05-5.85-5-6.85c-2.9-1.16-6.16-1.03-8.95,0.38
	C155.36,68.87,153.59,71.62,153.61,74.65z M255.54,66.98c0.94,0.89,1.4,2.17,1.24,3.45v8.52c-0.05,1.06,0.41,2.08,1.24,2.74
	c1.23,1.14,2.96,1.56,4.57,1.12c1.06-0.39,2.1-0.85,3.1-1.38l0.1,1.08h5.6c-0.74-0.81-1.07-1.92-0.89-3c0-2.51-0.05-5,0-7.55
	c0-1.69-0.5-3.51,1-5h-6.61c0.35,0.7,0.6,1.45,0.74,2.22c0.08,2.64,0.05,5.28,0,7.91c-0.04,0.64-0.2,1.26-0.48,1.83
	c-0.38,0.8-1.27,1.22-2.13,1c-0.74-0.09-1.33-0.67-1.43-1.41c-0.11-0.55-0.18-1.1-0.19-1.66v-5.27c0-1.56-0.3-3.19,1.08-4.6
	L255.54,66.98z M127,75.14l0.85-0.69c1.71-1.24,2.31-2.7,1.79-4.41c-0.49-1.8-2.14-3.04-4-3c-2.71-0.07-5.43-0.06-8.15-0.07
	c-0.25,0.04-0.5,0.1-0.73,0.2c0.81,0.78,1.2,1.89,1.07,3v8c0,1.49,0.27,3-1,4.34h6.78c-1.61-1.67-0.78-3.55-0.85-5.35
	c0.32,0.29,0.59,0.63,0.81,1c0.6,1,1.12,2.13,1.81,3.1c0.34,0.58,0.88,1.01,1.52,1.2c1.67,0.16,3.36,0.06,5,0.06L127,75.14z
	 M196.68,66.96c0.51,1.03,0.88,2.13,1.09,3.26c0.14,3.23,0.08,6.47,0,9.7c-0.12,0.69-0.33,1.37-0.64,2c-0.08,0.2-0.18,0.4-0.29,0.59
	h4.72c-0.39-0.66-0.67-1.39-0.83-2.14c-0.11-2.25,0-4.5,0-7c0.34,0.37,0.53,0.56,0.69,0.76l4.28,5.47c1.08,1.4,2.51,2.49,4.15,3.15
	c0.68,0.19,1.37,0.33,2.07,0.4V72.49c0-1.87-0.43-3.84,1.07-5.49h-4.87c0.38,0.59,0.66,1.24,0.83,1.92c0.09,2.25,0,4.5,0,6.76
	l-0.2,0.08l-7.14-8.84L196.68,66.96z M228.44,67.08c-1.91-0.58-3.93-0.71-5.9-0.36c-3.13,0.67-5.67,2.06-6.79,5.34
	c-1.13,3.18-0.18,6.72,2.38,8.91c1.58,1.19,3.47,1.88,5.44,2c2.13,0.14,4.26-0.12,6.29-0.77v-7.77h-4.66
	c-0.15,0.02-0.3,0.06-0.45,0.1c1.21,1.75,0.93,3.93,0.57,5.62c-2.08,0.29-3.48-0.36-4.28-2.21c-0.47-1.01-0.76-2.1-0.84-3.21
	c-0.17-3.75,1.89-5.74,5.2-5.28c0.78,0.17,1.53,0.43,2.25,0.76c0.24,0.09,0.46,0.22,0.79,0.38L228.44,67.08z M241.14,78.5
	c0.17,0.98,0.4,1.95,0.67,2.91c0.19,0.43,0.55,0.76,1,0.91c2.38,0.86,4.98,0.91,7.4,0.15c1.83-0.5,3.19-2.04,3.46-3.92
	c0.35-1.78-0.45-3.58-2-4.52c-0.91-0.57-1.85-1.08-2.82-1.55c-0.63-0.26-1.23-0.56-1.81-0.91c-0.33-0.25-0.7-0.83-0.62-1.16
	c0.19-0.45,0.55-0.81,1-1c0.87-0.32,1.84-0.27,2.67,0.14l1.74,0.68v-2.92c-2.73-0.93-5.42-1.18-8,0.13
	c-2.09,1.06-2.93,3.61-1.88,5.7c0.23,0.43,0.53,0.83,0.88,1.17c1.17,0.88,2.42,1.65,3.74,2.29c0.71,0.36,1.38,0.79,2,1.28
	c0.5,0.35,0.63,1.03,0.29,1.53c-0.12,0.17-0.28,0.3-0.46,0.38c-0.35,0.26-0.77,0.41-1.21,0.42c-1.07-0.02-2.14-0.16-3.18-0.41
	C243.02,79.45,242.06,79.01,241.14,78.5L241.14,78.5z M274.14,82.5h6.85c-1.45-2-1-4.21-1.07-6.29c1.24-0.14,2.48-0.35,3.7-0.62
	c1.9-0.41,3.29-2.05,3.38-4c0.12-2.63-1.67-4.49-4.57-4.6c-2.55-0.1-5.11-0.07-7.67-0.08c-0.24,0.02-0.47,0.07-0.69,0.15
	c1.35,1,1.2,2.18,1.2,3.38v8.63c0,1.22,0.12,2.43-1.09,3.46L274.14,82.5z M295.77,82.5c-0.99-1.95-1.28-4.17-0.82-6.31
	c1.23-0.21,2.46-0.33,3.64-0.65c1.87-0.42,3.21-2.08,3.22-4c0.28-1.71-0.68-3.38-2.3-4c-0.79-0.38-1.65-0.59-2.53-0.62
	c-2.39-0.1-4.79-0.07-7.19-0.08c-0.27,0.02-0.54,0.06-0.8,0.11c1.36,1.14,1.12,2.54,1.12,3.87c0,2.12,0.06,4.24,0,6.36
	c-0.06,1.77,0.55,3.66-1,5.27L295.77,82.5z M325.92,82.5c-1-1.85-1-1.85-1-4.1c-0.04-0.6-0.04-1.2,0-1.8c0.06-0.69,0.23-1.36,0.5-2
	c1.1-2.22,2.28-4.39,3.42-6.59c0.15-0.3,0.27-0.62,0.42-1h-4.65l0.86,1.29l-1.86,4.11l-2.77-5.37h-5.83
	c0.54,0.67,1.04,1.37,1.51,2.09c1.09,1.86,2.12,3.75,3.15,5.64c0.25,0.36,0.4,0.78,0.44,1.21c-0.16,2.21,0.68,4.53-0.87,6.6
	L325.92,82.5z M184.49,67h-10c1.37,1.22,1.15,2.65,1.15,4v6.11c0,1.82,0.48,3.74-0.95,5.37h6.7c-1.03-2.06-1.32-4.42-0.84-6.67
	c1-0.55,1.78,0,2.62,0.69v-3.6h-2.66v-3.41c1.38-0.24,2.79,0.07,3.94,0.86L184.49,67z M309.96,79.73c0-0.44-0.05-0.83-0.05-1.22
	v-6.26c0.05-1.78-0.49-3.67,1-5.22h-6.73l-0.22,0.19c1.36,0.76,1.15,2,1.15,3.12v9c0,1.12,0.1,2.24-1.07,3.17h11
	c0.34-1.15,0.67-2.28,1.06-3.63c-1.78,1.3-4.1,1.61-6.16,0.83L309.96,79.73z M194.06,67.02h-7.19c0.9,0.72,1.33,1.87,1.14,3v9
	c0,1.25,0.23,2.57-1.07,3.55h7c-0.89-0.79-1.33-1.98-1.18-3.16V70.9c0.02-1.43-0.15-2.81,1.28-3.9L194.06,67.02z"/>
<path class="st7" d="M189.76,53.22h-10.91c-1.03-0.03-2.06-0.13-3.08-0.28c-1.83-0.21-3.44-1.29-4.33-2.9
	c-1.1-1.85-2.13-3.75-3.17-5.64c-1.55-2.83-3.08-5.66-4.85-8.49v10.12c0,2.69,0.09,5.29,2.88,7.15h-17.79
	c0.13-0.16,0.26-0.3,0.41-0.44c1.48-1.15,2.32-2.94,2.25-4.81v-30.6c0-2.38-0.5-4.52-2.79-6.1c0.31-0.08,0.62-0.14,0.93-0.18
	c7.12,0,14.24-0.06,21.35,0c3.84-0.17,7.51,1.62,9.74,4.76c3.4,4.85,2.71,11.73-3.56,15.48c-0.68,0.41-1.39,0.77-2.15,1.19
	c1.74,2.86,3.4,5.68,5.14,8.44c1.41,2.36,2.95,4.64,4.61,6.84c1.39,1.55,2.88,3,4.46,4.34c0.31,0.3,0.64,0.56,1,0.84L189.76,53.22z
	 M163.49,31.57c0.1,0.01,0.2,0.01,0.3,0c4.14-0.84,6.96-4.67,6.54-8.87c-0.47-3.32-2.42-5.88-6.84-5.34V31.57z"/>
<path class="st8" d="M221.8,40.65h-12.88c-0.83,2.56-1.74,5.11-2.46,7.71c-0.46,1.5,0.12,3.12,1.41,4c0.21,0.18,0.41,0.37,0.59,0.58
	v0.2h-13.09c0.07-0.2,0.07-0.34,0.15-0.4c2.31-2.14,3.42-5,4.43-7.84c3.13-8.97,6.27-17.91,9.42-26.84
	c0.16-0.45,0.27-0.92,0.42-1.37c0.72-1.69,0.17-3.64-1.31-4.72c-0.25-0.19-0.52-0.35-0.77-0.53l0.16-0.28h15.84
	c0.45,1.16,0.93,2.38,1.39,3.6l11.55,31c0.86,2.51,2.31,4.77,4.23,6.6c0.18,0.16,0.34,0.33,0.49,0.52c0,0.12,0.02,0.24,0.05,0.35
	h-19.56c0.37-0.34,0.57-0.55,0.79-0.73c1.72-1.02,2.4-3.18,1.57-5c-0.66-2-1.35-4-2-6C222.09,41.14,221.94,40.9,221.8,40.65z
	 M219.7,34.48l-4.33-12.27h-0.24l-4.19,12.24L219.7,34.48z"/>
<path class="st7" d="M305.37,42.65c1.62,0.94,3,1.81,4.44,2.55c2.71,1.39,5.69,2.16,8.73,2.26c1.59,0.02,3.17-0.25,4.67-0.79
	c2.08-0.65,3.24-2.86,2.59-4.94c-0.25-0.79-0.74-1.49-1.41-1.98c-1.42-1.09-2.95-2.03-4.58-2.78c-3-1.48-6.08-2.65-8.75-4.67
	c-2.16-1.49-3.75-3.67-4.51-6.18c-1.8-6.47,1.28-12.55,7.87-14.86c4.58-1.6,9.24-1.48,13.93-0.67c1.25,0.22,2.47,0.59,3.7,0.93
	c0.37,0.13,0.73,0.29,1.08,0.47v7.36c-1-0.5-2-1-3-1.46c-2.07-0.97-4.34-1.43-6.62-1.34c-1.24,0.05-2.44,0.43-3.49,1.1
	c-1.63,1.07-2.09,3.27-1.02,4.9c0.01,0.01,0.01,0.02,0.02,0.03c0.2,0.3,0.45,0.57,0.74,0.8c0.91,0.59,1.87,1.11,2.85,1.56
	c2.52,1.21,5.12,2.24,7.57,3.57c2.61,1.35,4.82,3.37,6.39,5.85c3.2,5.25,1.53,12.82-3.78,16.48c-2.7,1.8-5.82,2.87-9.05,3.12
	c-4.73,0.42-9.5-0.07-14.06-1.42c-1.44-0.24-2.55-1.42-2.68-2.88C306.61,47.35,305.92,45.09,305.37,42.65z"/>
<path class="st7" d="M274.92,11.11l-15.1,43.4c-0.5-0.11-0.93-0.17-1.33-0.3c-1.47-0.51-2.93-1-4.39-1.56
	c-4.1-1.44-7.29-4.72-8.61-8.86c-3.33-9.36-6.83-18.66-10.33-27.95c-0.63-1.39-1.36-2.72-2.19-4c-0.13-0.23-0.29-0.43-0.53-0.78H247
	c0.87,5,2.89,9.47,4.46,14.14s3.24,9.26,4.87,13.89c0.32,0.93,0.66,1.85,1.08,3c1-2.91,1.87-5.55,2.75-8.2
	c1.77-5.33,3.53-10.67,5.3-16c0.2-0.57,0.35-1.15,0.44-1.74c0.28-1.66-0.43-3.34-1.82-4.29c-0.31-0.2-0.57-0.48-0.74-0.81
	L274.92,11.11z"/>
<path class="st5" d="M141.18,11.01c-0.77,3.39-1.47,6.41-2.21,9.65c-2.29-3.28-5.37-2.85-8.6-2.37c0,0.55-0.08,1-0.08,1.47v24.47
	c0,3.23,0.19,6.33,3,8.88h-17.76c0.09-0.16,0.12-0.29,0.2-0.34c1.59-1.21,2.47-3.14,2.35-5.14V18.96c-0.01-0.15-0.03-0.31-0.06-0.46
	c-3.8-0.96-7.83-0.17-11,2.14l2.47-9.63L141.18,11.01L141.18,11.01z"/>
<path class="st7" d="M299.66,11.12c-2.44,1.82-2.79,4.25-2.79,6.85v28.78c0,2.44,0.41,4.69,2.86,6.37h-17.54l-0.32-0.3
	c0.26-0.06,0.51-0.16,0.74-0.3c1.26-1.03,1.99-2.57,2-4.19c0.09-3,0.09-6.08,0.09-9.11V17.99c0.02-0.88-0.04-1.76-0.15-2.63
	c-0.24-1.67-1.1-3.18-2.41-4.24H299.66z"/>
<path class="st2" d="M151.28,74.76c0.13,3.09-1.68,5.94-4.54,7.13c-3.39,1.74-7.46,1.47-10.6-0.68c-3.56-2.62-4.32-7.62-1.71-11.18
	c0.25-0.35,0.53-0.69,0.83-1c3.39-2.87,8.18-3.4,12.11-1.34C150.05,69.2,151.26,71.41,151.28,74.76z M146.28,75.52
	c0.09-1.57-0.29-3.13-1.08-4.49c-0.99-1.79-3.25-2.44-5.04-1.44c-0.79,0.44-1.39,1.15-1.7,2c-0.97,2.47-0.56,5.26,1.06,7.36
	c1.03,1.37,2.89,1.79,4.41,1c1.65-0.82,2.58-2.61,2.31-4.43H146.28z"/>
<path class="st2" d="M153.61,74.65c-0.01-3.02,1.76-5.77,4.52-7c2.79-1.41,6.05-1.54,8.95-0.38c2.95,1,4.95,3.74,5,6.85
	c0.36,3.17-1.32,6.23-4.19,7.63c-2.93,1.58-6.43,1.71-9.47,0.34C155.17,80.65,153.72,78.11,153.61,74.65z M158.68,74.17
	c-0.04,1.4,0.3,2.78,1,4c0.6,1.41,2.04,2.28,3.57,2.14c1.57-0.08,2.93-1.15,3.36-2.66c0.85-2.42,0.42-5.11-1.14-7.15
	c-1.2-1.6-3.47-1.92-5.07-0.71c-0.34,0.26-0.63,0.57-0.86,0.92c-0.69,1.01-1,2.23-0.88,3.44L158.68,74.17z"/>
<path class="st2" d="M255.52,66.96h7c-1.38,1.41-1.06,3-1.08,4.6v5.27c0.01,0.56,0.08,1.11,0.19,1.66c0.1,0.74,0.69,1.32,1.43,1.41
	c0.86,0.22,1.75-0.2,2.13-1c0.28-0.57,0.44-1.19,0.48-1.83c0.06-2.63,0.09-5.27,0-7.91c-0.14-0.77-0.39-1.52-0.74-2.22h6.61
	c-1.52,1.49-1,3.31-1,5c-0.06,2.52,0,5,0,7.55c-0.18,1.08,0.15,2.19,0.89,3h-5.66l-0.1-1.08c-1,0.52-2.03,0.98-3.09,1.37
	c-1.62,0.44-3.34,0.01-4.57-1.13c-0.83-0.66-1.29-1.68-1.24-2.74v-8.52C256.92,69.11,256.45,67.84,255.52,66.96z"/>
<path class="st2" d="M126.98,75.12l4.95,7.45c-1.65,0-3.34,0.1-5-0.06c-0.64-0.19-1.18-0.62-1.52-1.2c-0.69-1-1.21-2.06-1.81-3.1
	c-0.21-0.39-0.49-0.75-0.81-1.05c0.07,1.8-0.76,3.68,0.85,5.35h-6.84c1.29-1.3,1-2.85,1-4.34v-8c0.13-1.11-0.26-2.22-1.07-3
	c0.23-0.1,0.48-0.16,0.73-0.2c2.72,0,5.44,0,8.15,0.07c1.86-0.04,3.51,1.2,4,3c0.52,1.71-0.08,3.17-1.79,4.41L126.98,75.12z
	 M122.71,74.3c1.37-0.2,2.36-1.41,2.3-2.79c-0.08-1.23-0.8-1.88-2.3-2V74.3z"/>
<path class="st2" d="M196.66,66.94h5l7.09,8.84l0.2-0.08v-6.76c-0.17-0.68-0.45-1.33-0.83-1.92h4.87c-1.5,1.65-1,3.62-1.07,5.49
	v10.64c-0.7-0.07-1.39-0.21-2.07-0.4c-1.64-0.66-3.07-1.75-4.15-3.15c-1.42-1.83-2.85-3.65-4.28-5.47c-0.16-0.2-0.35-0.39-0.69-0.76
	c0,2.48-0.07,4.73,0,7c0.16,0.75,0.44,1.48,0.83,2.14h-4.72c0.11-0.19,0.21-0.39,0.29-0.59c0.31-0.63,0.52-1.31,0.64-2
	c0.06-3.23,0.12-6.47,0-9.7C197.55,69.08,197.18,67.97,196.66,66.94z"/>
<path class="st2" d="M228.42,67.06v3.46c-0.33-0.16-0.55-0.29-0.79-0.38c-0.72-0.32-1.48-0.57-2.26-0.73
	c-3.31-0.46-5.37,1.53-5.2,5.28c0.08,1.11,0.37,2.2,0.84,3.21c0.8,1.85,2.2,2.5,4.28,2.21c0.36-1.69,0.64-3.87-0.57-5.62
	c0.15-0.04,0.3-0.08,0.45-0.1h4.66v7.78c-2.03,0.65-4.16,0.91-6.29,0.77c-1.97-0.12-3.86-0.81-5.44-2
	c-2.56-2.19-3.51-5.73-2.38-8.91c1.12-3.28,3.66-4.67,6.79-5.34C224.48,66.34,226.51,66.47,228.42,67.06z"/>
<path class="st9" d="M241.12,78.48c0.87,0.5,1.78,0.93,2.73,1.27c1.04,0.25,2.11,0.39,3.18,0.41c0.44-0.01,0.86-0.16,1.21-0.42
	c0.55-0.25,0.8-0.9,0.55-1.45c-0.08-0.19-0.21-0.35-0.38-0.46c-0.62-0.49-1.29-0.92-2-1.28c-1.32-0.64-2.57-1.41-3.74-2.29
	c-1.7-1.61-1.78-4.29-0.18-5.99c0,0,0,0,0.01-0.01c0.33-0.36,0.73-0.66,1.17-0.88c2.61-1.31,5.3-1.06,8-0.13v2.92l-1.74-0.68
	c-0.81-0.36-1.73-0.39-2.56-0.09c-0.45,0.19-0.81,0.55-1,1c-0.08,0.33,0.29,0.91,0.62,1.16c0.58,0.35,1.18,0.65,1.81,0.91
	c0.97,0.47,1.91,0.98,2.82,1.55c1.55,0.94,2.35,2.74,2,4.52c-0.27,1.88-1.63,3.42-3.46,3.92c-2.42,0.76-5.02,0.71-7.4-0.15
	c-0.45-0.15-0.81-0.48-1-0.91C241.49,80.44,241.28,79.46,241.12,78.48z"/>
<path class="st2" d="M274.16,82.51c1.22-1,1.13-2.24,1.13-3.44v-8.63c0-1.2,0.15-2.43-1.2-3.38c0.22-0.08,0.45-0.13,0.69-0.15
	c2.56,0,5.12,0,7.67,0.08c2.9,0.11,4.69,2,4.57,4.6c-0.09,1.95-1.48,3.59-3.38,4c-1.22,0.27-2.46,0.48-3.7,0.62
	c0.08,2.08-0.38,4.27,1.07,6.29L274.16,82.51z M279.91,69.51c-0.05,2.09,0,4,0,6c1.53-0.41,2.53-1.87,2.37-3.44
	C282.18,70.59,281.61,69.9,279.91,69.51z"/>
<path class="st2" d="M295.79,82.52h-6.68c1.56-1.61,0.95-3.5,1-5.27c0.07-2.12,0-4.24,0-6.36c0-1.33,0.24-2.73-1.12-3.87
	c0.26-0.05,0.53-0.09,0.8-0.11c2.4,0,4.8,0,7.19,0.08c0.88,0.03,1.74,0.24,2.53,0.62c1.62,0.62,2.58,2.29,2.3,4
	c-0.01,1.92-1.35,3.58-3.22,4c-1.18,0.32-2.41,0.44-3.64,0.65C294.5,78.38,294.8,80.59,295.79,82.52z M294.89,69.52v6
	c1.51-0.46,2.45-1.95,2.2-3.51c0.06-1.28-0.92-2.38-2.2-2.47V69.52z"/>
<path class="st2" d="M325.94,82.53h-6.7c1.55-2.07,0.71-4.39,0.87-6.6c-0.04-0.43-0.19-0.85-0.44-1.21c-1-1.89-2.06-3.78-3.15-5.64
	c-0.47-0.72-0.97-1.42-1.51-2.09h5.86l2.77,5.37l1.92-4.05l-0.86-1.29h4.67c-0.15,0.36-0.27,0.68-0.42,1
	c-1.14,2.2-2.32,4.37-3.42,6.59c-0.27,0.64-0.44,1.31-0.5,2c-0.04,0.6-0.04,1.2,0,1.8C324.97,80.65,324.97,80.65,325.94,82.53z"/>
<path class="st2" d="M184.47,66.98v3.43c-1.15-0.79-2.56-1.1-3.94-0.86v3.41h2.66v3.6c-0.84-0.71-1.62-1.24-2.62-0.69
	c-0.48,2.25-0.19,4.61,0.84,6.67h-6.71c1.43-1.63,0.9-3.55,0.95-5.37c0.06-2,0-4.08,0-6.11c0-1.38,0.22-2.81-1.15-4L184.47,66.98z"
	/>
<path class="st2" d="M309.94,79.71c2.06,0.77,4.36,0.46,6.14-0.83c-0.39,1.35-0.72,2.48-1.06,3.63h-11
	c1.17-0.93,1.08-2.05,1.07-3.17v-9c0-1.15,0.21-2.36-1.15-3.12l0.22-0.19h6.73c-1.45,1.55-0.91,3.44-1,5.22
	c-0.06,2.08,0,4.16,0,6.24C309.89,78.88,309.92,79.27,309.94,79.71z"/>
<path class="st2" d="M194.04,67c-1.43,1.09-1.26,2.47-1.26,3.82v8.51c-0.15,1.18,0.29,2.37,1.18,3.16h-7c1.3-1,1.07-2.3,1.07-3.55
	v-9c0.19-1.13-0.24-2.28-1.14-3L194.04,67z"/>
<path class="st3" d="M163.49,31.57V17.41c4.42-0.54,6.37,2,6.84,5.34c0.44,4.21-2.39,8.06-6.54,8.9
	C163.69,31.63,163.59,31.6,163.49,31.57z M165.93,20.09v7.62c1.46-1.22,2.16-3.13,1.82-5C167.66,21.57,166.97,20.57,165.93,20.09z"
	/>
<path class="st1" d="M219.7,34.41h-8.76l4.14-12.23h0.24L219.7,34.41z M216.14,31.84l-0.81-2.11l-0.2,0.06l-0.66,2L216.14,31.84z"/>
<path class="st10" d="M146.24,75.52c0.27,1.83-0.68,3.63-2.35,4.43c-1.52,0.79-3.38,0.37-4.41-1c-1.62-2.1-2.03-4.89-1.06-7.36
	c0.69-1.93,2.81-2.94,4.74-2.26c0.85,0.3,1.56,0.91,2,1.7C145.95,72.39,146.33,73.95,146.24,75.52z"/>
<path class="st10" d="M158.66,74.15c-0.08-1.2,0.25-2.39,0.94-3.38c1.08-1.68,3.32-2.17,5-1.09c0.36,0.24,0.68,0.53,0.94,0.88
	c1.56,2.04,1.99,4.73,1.14,7.15c-0.46,1.51-1.83,2.55-3.41,2.6c-1.53,0.14-2.97-0.73-3.57-2.14
	C158.98,76.95,158.62,75.56,158.66,74.15z"/>
<path class="st11" d="M122.71,74.3v-4.79c1.5,0.12,2.22,0.77,2.3,2C125.07,72.89,124.08,74.09,122.71,74.3z"/>
<path class="st12" d="M279.91,69.51c1.72,0.39,2.27,1.08,2.34,2.6c0.16,1.57-0.84,3.03-2.37,3.44
	C279.89,73.55,279.86,71.65,279.91,69.51z"/>
<path class="st13" d="M294.89,69.54c1.27,0.09,2.25,1.17,2.2,2.45c0.25,1.56-0.69,3.05-2.2,3.51V69.54z"/>
</svg>
