<?xml version="1.0" encoding="UTF-8"?>
<svg width="32px" height="39px" viewBox="0 0 32 39" version="1.1" xmlns="http://www.w3.org/2000/svg" xmlns:xlink="http://www.w3.org/1999/xlink">
    <!-- Generator: Sketch 47.1 (45422) - http://www.bohemiancoding.com/sketch -->
    <title>Group 2</title>
    <desc>Created with Sketch.</desc>
    <defs></defs>
    <g id="Page-1" stroke="none" stroke-width="1" fill="none" fill-rule="evenodd">
        <g id="Group-2" transform="translate(1.000000, 1.000000)">
            <g id="Group" stroke="#914314" fill="#B87333">
                <rect id="Rectangle" x="0" y="0" width="30.002174" height="30.002174"></rect>
                <polygon id="Triangle" points="15.3011087 37.2026958 7.80056524 30.002174 22.8016522 30.002174"></polygon>
            </g>
            <g id="Travis-Wolf-Badge-Inverse" transform="translate(6.000435, 4.200304)" fill-rule="nonzero" fill="#F6EEE7">
                <path d="M18.6013479,11.0801579 L18.6013479,14.9122087 L9.30190321,22.8016522 L0,14.6496381 L0,11.3080304 C1.3313704,15.291303 5.05441689,18.0060879 9.27608849,18.0174443 C13.6576632,18.0174443 17.3637043,15.0991886 18.6013479,11.0801579 Z M0,5.0438183 L0,0.68285753 C0,0.68285753 1.39532623,0.2985056 3.74027077,0 C1.98275198,1.22615858 0.667379666,2.99608222 0,5.0438183 Z M14.8266598,0.0136218553 C16.0465227,0.172094357 17.3087763,0.390495254 18.6001186,0.682857529 L18.6008795,5.19795097 C17.9513275,3.09228422 16.6202222,1.26954848 14.8266577,0.0136214729 L14.8266598,0.0136218553 Z" id="Shape"></path>
                <path d="M0,13.9621059 C2.27598238,13.5990202 4.46744553,11.09941 4.46744553,11.09941 C3.07529291,10.5362568 2.45830246,9.21976249 2.45830246,9.21976249 C4.23442371,8.73260991 5.97694204,8.1253066 7.67434697,7.40186419 C9.12324822,6.07178508 9.64243783,5.72104926 9.64243783,5.72104926 C10.0577895,5.30979918 11.2869408,5.29497935 11.2869408,5.29497935 L14.2257955,2.40017392 C15.3052269,3.10411551 15.5841404,5.03192749 15.5841404,5.03192749 C14.6411472,6.22986319 14.7546444,7.34628986 14.7546444,7.34628986 C15.1434329,7.60069682 15.9246322,7.43026885 15.9246322,7.43026885 C16.2663314,7.3598747 16.565771,7.02148874 16.565771,7.02148874 L16.8012174,7.03630856 L16.7625801,7.68714579 C16.7511777,7.88313845 16.6715044,8.06846785 16.5380004,8.20954455 L14.0724534,10.8178334 C13.6027679,11.2439033 13.8309699,12.7147708 13.8309699,12.7147708 C13.9927638,14.1967531 11.657618,16.9408903 11.657618,16.9408903 L8.26356681,21.0015218 L0,13.9621059 Z M10.9392045,6.33483694 C10.9392045,6.33483694 9.95757386,6.48427015 9.69073454,7.29565546 C9.69073454,7.29565546 9.97689254,7.52165776 10.4332964,7.17215694 C10.4332964,7.17586189 10.755677,6.94738962 10.9392045,6.33483694 Z" id="Shape"></path>
            </g>
            <path d="M9.23433129,29.6656308 C13.3088056,29.6437885 17.3832799,29.6219462 21.4577542,29.600104" id="Path-2" stroke="#B87333"></path>
            <path d="M10.161209,30.4921396 C13.5940749,30.495901 17.0269407,30.4996624 20.4598066,30.5034237" id="Path-3" stroke="#B87333"></path>
        </g>
    </g>
</svg>