<?xml version="1.0" encoding="UTF-8"?>
<svg preserveAspectRatio="xMinYMin meet" viewBox="0 0 493 194" version="1.1" xmlns="http://www.w3.org/2000/svg" xmlns:xlink="http://www.w3.org/1999/xlink">
    <!-- Generator: Sketch 45.2 (43514) - http://www.bohemiancoding.com/sketch -->
    <title>Travis Copper Stacked with Tagline</title>
    <desc>Created with Sketch.</desc>
    <defs></defs>
    <g id="Symbols" stroke="none" stroke-width="1" fill="none" fill-rule="evenodd">
        <g id="Travis-Copper-Stacked-with-Tagline" fill="#B87333">
            <g>
                <path d="M2.83910149,177.251953 L8.24242181,177.251953 L11.4221093,182.569336 L14.6017968,177.251953 L19.9728906,177.251953 L13.8498437,186.404297 L13.8498437,193 L8.97289056,193 L8.97289056,186.404297 L2.83910149,177.251953 Z M20.7276562,185.136719 C20.7276562,182.565742 21.4437949,180.564135 22.8760937,179.131836 C24.3083925,177.699537 26.3028387,176.983398 28.8594921,176.983398 C31.480599,176.983398 33.50011,177.687005 34.9180859,179.094238 C36.3360617,180.501472 37.045039,182.472644 37.045039,185.007812 C37.045039,186.848316 36.735309,188.357579 36.1158398,189.535645 C35.4963705,190.71371 34.6011972,191.630368 33.4302929,192.285645 C32.2593886,192.940921 30.8002561,193.268555 29.0528515,193.268555 C27.276801,193.268555 25.8069263,192.98568 24.6431835,192.419922 C23.4794407,191.854164 22.535928,190.95899 21.8126171,189.734375 C21.0893062,188.50976 20.7276562,186.977223 20.7276562,185.136719 Z M25.5938671,185.158203 C25.5938671,186.748055 25.8892743,187.890296 26.4800976,188.584961 C27.0709209,189.279626 27.8747865,189.626953 28.8917187,189.626953 C29.9372968,189.626953 30.7465335,189.286787 31.3194531,188.606445 C31.8923726,187.926103 32.1788281,186.705087 32.1788281,184.943359 C32.1788281,183.46093 31.8798402,182.37777 31.2818554,181.693848 C30.6838706,181.009925 29.8728436,180.667969 28.8487499,180.667969 C27.8676252,180.667969 27.0798727,181.015296 26.4854687,181.709961 C25.8910647,182.404626 25.5938671,183.554028 25.5938671,185.158203 Z M51.0341796,177.251953 L55.8896484,177.251953 L55.8896484,186.640625 C55.8896484,187.571619 55.7446303,188.450679 55.4545898,189.277832 C55.1645493,190.104985 54.7098012,190.828285 54.090332,191.447754 C53.4708627,192.067223 52.8209669,192.502277 52.1406249,192.75293 C51.1953077,193.103843 50.0602279,193.279297 48.7353515,193.279297 C47.9690716,193.279297 47.1329797,193.225586 46.2270507,193.118164 C45.3211217,193.010742 44.5638051,192.79769 43.9550781,192.479004 C43.3463511,192.160317 42.7895532,191.70736 42.2846679,191.120117 C41.7797826,190.532875 41.4342457,189.927737 41.2480468,189.304688 C40.9472641,188.302078 40.7968749,187.414066 40.7968749,186.640625 L40.7968749,177.251953 L45.6523437,177.251953 L45.6523437,186.866211 C45.6523437,187.72559 45.8904598,188.39697 46.3666992,188.880371 C46.8429385,189.363772 47.5035764,189.605469 48.3486328,189.605469 C49.1865276,189.605469 49.8435848,189.367353 50.3198242,188.891113 C50.7960635,188.414874 51.0341796,187.739913 51.0341796,186.866211 L51.0341796,177.251953 Z M60.2967578,193 L60.2967578,177.251953 L68.4071093,177.251953 C69.9110231,177.251953 71.0604257,177.380858 71.8553515,177.638672 C72.6502774,177.896486 73.2912215,178.374508 73.7782031,179.072754 C74.2651847,179.771 74.5086718,180.621414 74.5086718,181.624023 C74.5086718,182.497726 74.3224758,183.251462 73.9500781,183.885254 C73.5776804,184.519046 73.0656412,185.032876 72.4139453,185.426758 C71.9985786,185.67741 71.4292484,185.88509 70.7059374,186.049805 C71.2860185,186.243165 71.7085403,186.436522 71.9735156,186.629883 C72.1525529,186.75879 72.4121532,187.034503 72.7523242,187.457031 C73.0924951,187.879559 73.3198692,188.205402 73.4344531,188.43457 L75.7869921,193 L70.2869921,193 L67.6873828,188.1875 C67.357954,187.56445 67.0643372,187.159832 66.8065234,186.973633 C66.4556102,186.730142 66.0581532,186.608398 65.6141406,186.608398 L65.1844531,186.608398 L65.1844531,193 L60.2967578,193 Z M65.1844531,183.632812 L67.2362109,183.632812 C67.4582172,183.632812 67.8879004,183.561199 68.5252734,183.417969 C68.8475406,183.353515 69.1107216,183.188803 69.3148242,182.923828 C69.5189267,182.658853 69.6209765,182.354494 69.6209765,182.010742 C69.6209765,181.502276 69.4598453,181.111981 69.1375781,180.839844 C68.8153108,180.567707 68.2101737,180.431641 67.3221484,180.431641 L65.1844531,180.431641 L65.1844531,183.632812 Z M86.9215234,177.251953 L91.7877343,177.251953 L91.7877343,189.12207 L99.3824609,189.12207 L99.3824609,193 L86.9215234,193 L86.9215234,177.251953 Z M101.72707,185.136719 C101.72707,182.565742 102.443209,180.564135 103.875508,179.131836 C105.307807,177.699537 107.302253,176.983398 109.858906,176.983398 C112.480013,176.983398 114.499524,177.687005 115.9175,179.094238 C117.335476,180.501472 118.044453,182.472644 118.044453,185.007812 C118.044453,186.848316 117.734723,188.357579 117.115254,189.535645 C116.495785,190.71371 115.600611,191.630368 114.429707,192.285645 C113.258803,192.940921 111.79967,193.268555 110.052266,193.268555 C108.276215,193.268555 106.80634,192.98568 105.642598,192.419922 C104.478855,191.854164 103.535342,190.95899 102.812031,189.734375 C102.08872,188.50976 101.72707,186.977223 101.72707,185.136719 Z M106.593281,185.158203 C106.593281,186.748055 106.888688,187.890296 107.479512,188.584961 C108.070335,189.279626 108.874201,189.626953 109.891133,189.626953 C110.936711,189.626953 111.745948,189.286787 112.318867,188.606445 C112.891787,187.926103 113.178242,186.705087 113.178242,184.943359 C113.178242,183.46093 112.879254,182.37777 112.281269,181.693848 C111.683285,181.009925 110.872258,180.667969 109.848164,180.667969 C108.867039,180.667969 108.079287,181.015296 107.484883,181.709961 C106.890479,182.404626 106.593281,183.554028 106.593281,185.158203 Z M132.269922,186.56543 L136.53457,187.854492 C136.248111,189.050462 135.796943,190.049475 135.181055,190.851562 C134.565166,191.65365 133.800688,192.258787 132.887598,192.666992 C131.974507,193.075197 130.812572,193.279297 129.401758,193.279297 C127.690161,193.279297 126.2919,193.030439 125.206934,192.532715 C124.121967,192.034991 123.185616,191.159511 122.397852,189.90625 C121.610087,188.652989 121.216211,187.048838 121.216211,185.09375 C121.216211,182.486966 121.909075,180.483568 123.294824,179.083496 C124.680573,177.683424 126.641003,176.983398 129.176172,176.983398 C131.159906,176.983398 132.719298,177.384436 133.854394,178.186523 C134.989491,178.988611 135.832745,180.220369 136.38418,181.881836 L132.087305,182.837891 C131.936913,182.358071 131.779363,182.007163 131.614648,181.785156 C131.342512,181.412759 131.009507,181.126303 130.615625,180.925781 C130.221743,180.725259 129.781318,180.625 129.294336,180.625 C128.191466,180.625 127.346422,181.069006 126.75918,181.957031 C126.315167,182.615889 126.093164,183.650709 126.093164,185.061523 C126.093164,186.808928 126.358135,188.00667 126.888086,188.654785 C127.418036,189.3029 128.162821,189.626953 129.122461,189.626953 C130.053455,189.626953 130.757061,189.365563 131.233301,188.842773 C131.70954,188.319984 132.055077,187.560877 132.269922,186.56543 Z M149.707305,190.400391 L144.164336,190.400391 L143.401641,193 L138.428008,193 L144.346953,177.251953 L149.653594,177.251953 L155.572539,193 L150.480742,193 L149.707305,190.400391 Z M148.686797,186.995117 L146.946562,181.333984 L145.21707,186.995117 L148.686797,186.995117 Z M158.250156,177.251953 L163.116367,177.251953 L163.116367,189.12207 L170.711094,189.12207 L170.711094,193 L158.250156,193 L158.250156,177.251953 Z M182.565352,193 L182.565352,177.251953 L190.675703,177.251953 C192.179617,177.251953 193.329019,177.380858 194.123945,177.638672 C194.918871,177.896486 195.559815,178.374508 196.046797,179.072754 C196.533778,179.771 196.777266,180.621414 196.777266,181.624023 C196.777266,182.497726 196.59107,183.251462 196.218672,183.885254 C195.846274,184.519046 195.334235,185.032876 194.682539,185.426758 C194.267172,185.67741 193.697842,185.88509 192.974531,186.049805 C193.554612,186.243165 193.977134,186.436522 194.242109,186.629883 C194.421147,186.75879 194.680747,187.034503 195.020918,187.457031 C195.361089,187.879559 195.588463,188.205402 195.703047,188.43457 L198.055586,193 L192.555586,193 L189.955977,188.1875 C189.626548,187.56445 189.332931,187.159832 189.075117,186.973633 C188.724204,186.730142 188.326747,186.608398 187.882734,186.608398 L187.453047,186.608398 L187.453047,193 L182.565352,193 Z M187.453047,183.632812 L189.504805,183.632812 C189.726811,183.632812 190.156494,183.561199 190.793867,183.417969 C191.116134,183.353515 191.379315,183.188803 191.583418,182.923828 C191.787521,182.658853 191.88957,182.354494 191.88957,182.010742 C191.88957,181.502276 191.728439,181.111981 191.406172,180.839844 C191.083905,180.567707 190.478767,180.431641 189.590742,180.431641 L187.453047,180.431641 L187.453047,183.632812 Z M199.744922,185.136719 C199.744922,182.565742 200.461061,180.564135 201.893359,179.131836 C203.325658,177.699537 205.320104,176.983398 207.876758,176.983398 C210.497865,176.983398 212.517376,177.687005 213.935352,179.094238 C215.353327,180.501472 216.062305,182.472644 216.062305,185.007812 C216.062305,186.848316 215.752575,188.357579 215.133105,189.535645 C214.513636,190.71371 213.618463,191.630368 212.447559,192.285645 C211.276654,192.940921 209.817522,193.268555 208.070117,193.268555 C206.294067,193.268555 204.824192,192.98568 203.660449,192.419922 C202.496706,191.854164 201.553194,190.95899 200.829883,189.734375 C200.106572,188.50976 199.744922,186.977223 199.744922,185.136719 Z M204.611133,185.158203 C204.611133,186.748055 204.90654,187.890296 205.497363,188.584961 C206.088187,189.279626 206.892052,189.626953 207.908984,189.626953 C208.954563,189.626953 209.763799,189.286787 210.336719,188.606445 C210.909638,187.926103 211.196094,186.705087 211.196094,184.943359 C211.196094,183.46093 210.897106,182.37777 210.299121,181.693848 C209.701136,181.009925 208.890109,180.667969 207.866016,180.667969 C206.884891,180.667969 206.097138,181.015296 205.502734,181.709961 C204.90833,182.404626 204.611133,183.554028 204.611133,185.158203 Z M219.191094,185.136719 C219.191094,182.565742 219.907232,180.564135 221.339531,179.131836 C222.77183,177.699537 224.766276,176.983398 227.32293,176.983398 C229.944037,176.983398 231.963548,177.687005 233.381523,179.094238 C234.799499,180.501472 235.508477,182.472644 235.508477,185.007812 C235.508477,186.848316 235.198747,188.357579 234.579277,189.535645 C233.959808,190.71371 233.064635,191.630368 231.89373,192.285645 C230.722826,192.940921 229.263694,193.268555 227.516289,193.268555 C225.740239,193.268555 224.270364,192.98568 223.106621,192.419922 C221.942878,191.854164 220.999366,190.95899 220.276055,189.734375 C219.552744,188.50976 219.191094,186.977223 219.191094,185.136719 Z M224.057305,185.158203 C224.057305,186.748055 224.352712,187.890296 224.943535,188.584961 C225.534358,189.279626 226.338224,189.626953 227.355156,189.626953 C228.400734,189.626953 229.209971,189.286787 229.782891,188.606445 C230.35581,187.926103 230.642266,186.705087 230.642266,184.943359 C230.642266,183.46093 230.343278,182.37777 229.745293,181.693848 C229.147308,181.009925 228.336281,180.667969 227.312187,180.667969 C226.331063,180.667969 225.54331,181.015296 224.948906,181.709961 C224.354502,182.404626 224.057305,183.554028 224.057305,185.158203 Z M239.271055,177.251953 L251.302305,177.251953 L251.302305,180.635742 L244.15875,180.635742 L244.15875,183.385742 L250.260312,183.385742 L250.260312,186.56543 L244.15875,186.56543 L244.15875,193 L239.271055,193 L239.271055,177.251953 Z M255.236758,177.251953 L260.113711,177.251953 L260.113711,193 L255.236758,193 L255.236758,177.251953 Z M264.757148,177.251953 L269.301094,177.251953 L275.230781,185.963867 L275.230781,177.251953 L279.817695,177.251953 L279.817695,193 L275.230781,193 L269.33332,184.352539 L269.33332,193 L264.757148,193 L264.757148,177.251953 Z M292.088086,187.295898 L292.088086,184.019531 L299.607617,184.019531 L299.607617,190.733398 C298.168157,191.714523 296.89522,192.382322 295.78877,192.736816 C294.682319,193.09131 293.369995,193.268555 291.851758,193.268555 C289.982608,193.268555 288.459023,192.949873 287.280957,192.3125 C286.102891,191.675127 285.189814,190.726243 284.541699,189.46582 C283.893584,188.205397 283.569531,186.758797 283.569531,185.125977 C283.569531,183.407218 283.92402,181.912278 284.633008,180.641113 C285.341996,179.369948 286.380397,178.404951 287.748242,177.746094 C288.815305,177.237628 290.251163,176.983398 292.055859,176.983398 C293.796102,176.983398 295.097684,177.140949 295.960645,177.456055 C296.823605,177.77116 297.539743,178.259925 298.109082,178.922363 C298.678421,179.584801 299.106314,180.424474 299.392773,181.441406 L294.698438,182.279297 C294.505077,181.684893 294.177444,181.230145 293.715527,180.915039 C293.253611,180.599933 292.664587,180.442383 291.948438,180.442383 C290.881375,180.442383 290.03096,180.812985 289.397168,181.554199 C288.763376,182.295414 288.446484,183.468091 288.446484,185.072266 C288.446484,186.776701 288.766956,187.994137 289.40791,188.724609 C290.048864,189.455082 290.942247,189.820312 292.088086,189.820312 C292.63236,189.820312 293.15156,189.741537 293.645703,189.583984 C294.139846,189.426432 294.705596,189.15788 295.342969,188.77832 L295.342969,187.295898 L292.088086,187.295898 Z M312.138633,177.251953 L319.368125,177.251953 C320.793262,177.251953 321.944455,177.445311 322.821738,177.832031 C323.699021,178.218752 324.424112,178.773759 324.997031,179.49707 C325.569951,180.220381 325.985311,181.061844 326.243125,182.021484 C326.500939,182.981125 326.629844,183.998042 326.629844,185.072266 C326.629844,186.755217 326.438277,188.060379 326.055137,188.987793 C325.671997,189.915206 325.140264,190.692217 324.459922,191.318848 C323.77958,191.945478 323.049119,192.362629 322.268516,192.570312 C321.201453,192.856772 320.234666,193 319.368125,193 L312.138633,193 L312.138633,177.251953 Z M317.004844,180.818359 L317.004844,189.422852 L318.197227,189.422852 C319.214159,189.422852 319.937459,189.31006 320.367148,189.084473 C320.796838,188.858886 321.133423,188.465009 321.376914,187.902832 C321.620405,187.340655 321.742148,186.429368 321.742148,185.168945 C321.742148,183.500317 321.470016,182.358076 320.925742,181.742188 C320.381469,181.126299 319.479134,180.818359 318.218711,180.818359 L317.004844,180.818359 Z M330.499844,177.251953 L335.376797,177.251953 L335.376797,193 L330.499844,193 L330.499844,177.251953 Z M339.139375,187.790039 L343.769258,187.5 C343.869519,188.251957 344.073618,188.824868 344.381563,189.21875 C344.882867,189.856123 345.599006,190.174805 346.53,190.174805 C347.224665,190.174805 347.759979,190.011883 348.135957,189.686035 C348.511936,189.360187 348.699922,188.982424 348.699922,188.552734 C348.699922,188.144529 348.520887,187.779298 348.162813,187.457031 C347.804738,187.134764 346.974017,186.830405 345.670625,186.543945 C343.5365,186.064125 342.014705,185.426762 341.105195,184.631836 C340.188524,183.83691 339.730195,182.823574 339.730195,181.591797 C339.730195,180.782548 339.964731,180.01807 340.433809,179.29834 C340.902886,178.57861 341.608283,178.01286 342.55002,177.601074 C343.491756,177.189288 344.782596,176.983398 346.422578,176.983398 C348.434958,176.983398 349.969285,177.357581 351.025605,178.105957 C352.081926,178.854333 352.710338,180.044914 352.910859,181.677734 L348.323945,181.946289 C348.2022,181.237301 347.94618,180.721681 347.555879,180.399414 C347.165578,180.077147 346.626683,179.916016 345.93918,179.916016 C345.373422,179.916016 344.947319,180.035969 344.660859,180.275879 C344.3744,180.515789 344.231172,180.807615 344.231172,181.151367 C344.231172,181.402019 344.349335,181.627603 344.585664,181.828125 C344.814832,182.035808 345.359097,182.229166 346.218477,182.408203 C348.34544,182.866539 349.869025,183.330239 350.789277,183.799316 C351.709529,184.268394 352.379119,184.850257 352.798066,185.544922 C353.217014,186.239587 353.426484,187.016597 353.426484,187.875977 C353.426484,188.885747 353.14719,189.816728 352.588594,190.668945 C352.029997,191.521163 351.249406,192.167478 350.246797,192.60791 C349.244188,193.048342 347.980203,193.268555 346.454805,193.268555 C343.776406,193.268555 341.921607,192.752935 340.890352,191.72168 C339.859096,190.690425 339.275443,189.379891 339.139375,187.790039 Z M355.889258,177.251953 L370.68125,177.251953 L370.68125,181.140625 L365.718359,181.140625 L365.718359,193 L360.852148,193 L360.852148,181.140625 L355.889258,181.140625 L355.889258,177.251953 Z M374.067852,193 L374.067852,177.251953 L382.178203,177.251953 C383.682117,177.251953 384.83152,177.380858 385.626445,177.638672 C386.421371,177.896486 387.062315,178.374508 387.549297,179.072754 C388.036279,179.771 388.279766,180.621414 388.279766,181.624023 C388.279766,182.497726 388.09357,183.251462 387.721172,183.885254 C387.348774,184.519046 386.836735,185.032876 386.185039,185.426758 C385.769672,185.67741 385.200342,185.88509 384.477031,186.049805 C385.057112,186.243165 385.479634,186.436522 385.744609,186.629883 C385.923647,186.75879 386.183247,187.034503 386.523418,187.457031 C386.863589,187.879559 387.090963,188.205402 387.205547,188.43457 L389.558086,193 L384.058086,193 L381.458477,188.1875 C381.129048,187.56445 380.835431,187.159832 380.577617,186.973633 C380.226704,186.730142 379.829247,186.608398 379.385234,186.608398 L378.955547,186.608398 L378.955547,193 L374.067852,193 Z M378.955547,183.632812 L381.007305,183.632812 C381.229311,183.632812 381.658994,183.561199 382.296367,183.417969 C382.618634,183.353515 382.881815,183.188803 383.085918,182.923828 C383.290021,182.658853 383.39207,182.354494 383.39207,182.010742 C383.39207,181.502276 383.230939,181.111981 382.908672,180.839844 C382.586405,180.567707 381.981268,180.431641 381.093242,180.431641 L378.955547,180.431641 L378.955547,183.632812 Z M392.429063,177.251953 L397.306016,177.251953 L397.306016,193 L392.429063,193 L392.429063,177.251953 Z M401.927969,177.251953 L411.037344,177.251953 C412.555581,177.251953 413.721096,177.627926 414.533926,178.379883 C415.346755,179.13184 415.753164,180.06282 415.753164,181.172852 C415.753164,182.103846 415.463128,182.90234 414.883047,183.568359 C414.496326,184.012372 413.930577,184.36328 413.185781,184.621094 C414.317297,184.893231 415.149809,185.360511 415.68334,186.022949 C416.216871,186.685387 416.483633,187.517899 416.483633,188.520508 C416.483633,189.336918 416.293856,190.07096 415.914297,190.722656 C415.534738,191.374352 415.015537,191.889972 414.35668,192.269531 C413.948475,192.505861 413.332595,192.677734 412.509023,192.785156 C411.413315,192.928386 410.686434,193 410.328359,193 L401.927969,193 L401.927969,177.251953 Z M406.837148,183.428711 L408.953359,183.428711 C409.712478,183.428711 410.24063,183.298016 410.537832,183.036621 C410.835034,182.775227 410.983633,182.397463 410.983633,181.90332 C410.983633,181.444985 410.835034,181.086915 410.537832,180.829102 C410.24063,180.571288 409.72322,180.442383 408.985586,180.442383 L406.837148,180.442383 L406.837148,183.428711 Z M406.837148,189.616211 L409.318594,189.616211 C410.156489,189.616211 410.747303,189.467612 411.091055,189.17041 C411.434806,188.873208 411.60668,188.473961 411.60668,187.972656 C411.60668,187.507159 411.436597,187.132977 411.096426,186.850098 C410.756255,186.567219 410.160069,186.425781 409.307852,186.425781 L406.837148,186.425781 L406.837148,189.616211 Z M429.828242,177.251953 L434.683711,177.251953 L434.683711,186.640625 C434.683711,187.571619 434.538693,188.450679 434.248652,189.277832 C433.958612,190.104985 433.503864,190.828285 432.884395,191.447754 C432.264925,192.067223 431.615029,192.502277 430.934688,192.75293 C429.98937,193.103843 428.854291,193.279297 427.529414,193.279297 C426.763134,193.279297 425.927042,193.225586 425.021113,193.118164 C424.115184,193.010742 423.357868,192.79769 422.749141,192.479004 C422.140414,192.160317 421.583616,191.70736 421.078731,191.120117 C420.573845,190.532875 420.228308,189.927737 420.042109,189.304688 C419.741327,188.302078 419.590938,187.414066 419.590938,186.640625 L419.590938,177.251953 L424.446406,177.251953 L424.446406,186.866211 C424.446406,187.72559 424.684522,188.39697 425.160762,188.880371 C425.637001,189.363772 426.297639,189.605469 427.142695,189.605469 C427.98059,189.605469 428.637647,189.367353 429.113887,188.891113 C429.590126,188.414874 429.828242,187.739913 429.828242,186.866211 L429.828242,177.251953 Z M437.919922,177.251953 L452.711914,177.251953 L452.711914,181.140625 L447.749023,181.140625 L447.749023,193 L442.882813,193 L442.882813,181.140625 L437.919922,181.140625 L437.919922,177.251953 Z M454.669805,185.136719 C454.669805,182.565742 455.385943,180.564135 456.818242,179.131836 C458.250541,177.699537 460.244987,176.983398 462.801641,176.983398 C465.422748,176.983398 467.442259,177.687005 468.860234,179.094238 C470.27821,180.501472 470.987188,182.472644 470.987188,185.007812 C470.987188,186.848316 470.677458,188.357579 470.057988,189.535645 C469.438519,190.71371 468.543346,191.630368 467.372441,192.285645 C466.201537,192.940921 464.742405,193.268555 462.995,193.268555 C461.21895,193.268555 459.749075,192.98568 458.585332,192.419922 C457.421589,191.854164 456.478077,190.95899 455.754766,189.734375 C455.031455,188.50976 454.669805,186.977223 454.669805,185.136719 Z M459.536016,185.158203 C459.536016,186.748055 459.831423,187.890296 460.422246,188.584961 C461.013069,189.279626 461.816935,189.626953 462.833867,189.626953 C463.879445,189.626953 464.688682,189.286787 465.261602,188.606445 C465.834521,187.926103 466.120977,186.705087 466.120977,184.943359 C466.120977,183.46093 465.821989,182.37777 465.224004,181.693848 C464.626019,181.009925 463.814992,180.667969 462.790899,180.667969 C461.809774,180.667969 461.022021,181.015296 460.427617,181.709961 C459.833213,182.404626 459.536016,183.554028 459.536016,185.158203 Z M474.792734,193 L474.792734,177.251953 L482.903086,177.251953 C484.407,177.251953 485.556402,177.380858 486.351328,177.638672 C487.146254,177.896486 487.787198,178.374508 488.27418,179.072754 C488.761161,179.771 489.004649,180.621414 489.004649,181.624023 C489.004649,182.497726 488.818452,183.251462 488.446055,183.885254 C488.073657,184.519046 487.561618,185.032876 486.909922,185.426758 C486.494555,185.67741 485.925225,185.88509 485.201914,186.049805 C485.781995,186.243165 486.204517,186.436522 486.469492,186.629883 C486.64853,186.75879 486.90813,187.034503 487.248301,187.457031 C487.588472,187.879559 487.815846,188.205402 487.93043,188.43457 L490.282969,193 L484.782969,193 L482.183359,188.1875 C481.853931,187.56445 481.560314,187.159832 481.3025,186.973633 C480.951587,186.730142 480.55413,186.608398 480.110117,186.608398 L479.68043,186.608398 L479.68043,193 L474.792734,193 Z M479.68043,183.632812 L481.732188,183.632812 C481.954194,183.632812 482.383877,183.561199 483.02125,183.417969 C483.343517,183.353515 483.606698,183.188803 483.810801,182.923828 C484.014903,182.658853 484.116953,182.354494 484.116953,182.010742 C484.116953,181.502276 483.955822,181.111981 483.633555,180.839844 C483.311288,180.567707 482.70615,180.431641 481.818125,180.431641 L479.68043,180.431641 L479.68043,183.632812 Z" id="YOUR-LOCAL-ROOFING-D"></path>
                <g id="Travis-Copper-Stacked">
                    <g>
                        <path d="M20.82,94.32 L20.82,92.2 L21.34,91.88 C26.79,88.49 26.7,82.58 26.61,76.32 C26.61,75.53 26.61,74.74 26.61,73.96 L26.61,20.7 C24.7042935,20.4121313 22.7763391,20.2983284 20.85,20.36 C15.05,20.36 11.29,21.57 5.95,25.16 L2.57,27.53 L8.92,2.93 L12.43,3.47 L77.43,3.47 L71.72,28.35 L70.38,25.35 C68.76,21.75 65.5,20.07 60.13,20.07 C58.1480191,20.0201613 56.1672123,20.20817 54.23,20.63 L54.23,73.63 C54.23,80.63 54.23,86.76 59.91,91.95 L60.27,92.28 L60.27,94.28 L20.82,94.32 Z" id="Shape" fill-rule="nonzero"></path>
                        <path d="M9.7,4.18 L12.31,4.58 L76,4.58 L71.33,24.92 C69.27,20.34 65.02,18.99 60.07,18.99 C57.7097045,18.9184494 55.3515828,19.1913178 53.07,19.8 L53.07,73.69 C53.07,81.37 53.21,87.43 59.07,92.82 L59.07,93.22 L21.87,93.22 L21.87,92.82 C28.6,88.64 27.64,80.96 27.64,73.96 L27.64,19.8 C25.382947,19.3478165 23.0800049,19.1665354 20.78,19.26 C14.47,19.26 10.48,20.74 5.27,24.26 L4.27,24.93 L9.62,4.18 L9.7,4.18 Z M7.99,1.7 L7.49,3.63 L2.14,24.38 L0.65,30.15 L5.53,26.73 L6.53,26.06 C11.63,22.64 15.23,21.47 20.78,21.47 C22.3355585,21.4339049 23.8918607,21.4940195 25.44,21.65 L25.44,74 C25.44,74.79 25.44,75.58 25.44,76.38 C25.53,82.58 25.61,87.93 20.69,90.99 L19.69,91.64 L19.69,95.47 L61.29,95.47 L61.29,91.9 L60.57,91.25 C55.5,86.63 55.25,81.59 55.25,73.75 L55.25,21.54 C56.8359001,21.2765399 58.4426566,21.1593805 60.05,21.19 C65.05,21.19 67.86,22.62 69.3,25.82 L71.99,31.82 L73.46,25.43 L78.13,5.09 L78.75,2.4 L12.48,2.4 L10,2 L8,1.69 L7.99,1.7 Z" id="Shape" fill-rule="nonzero"></path>
                        <path d="M157.24,94.32 L156.17,94.32 C147.48,93.96 142.69,93.76 137.76,85.19 L123.89,59.61 L123.89,74 C123.89,74.78 123.89,75.57 123.89,76.36 C123.8,82.62 123.71,88.54 129.16,91.93 L129.68,92.25 L129.68,94.37 L90.52,94.37 L90.52,92.25 L91.04,91.93 C96.49,88.54 96.4,82.63 96.31,76.37 C96.31,75.58 96.31,74.79 96.31,74.01 L96.31,23.84 C96.31,23.06 96.31,22.27 96.31,21.48 C96.4,15.22 96.49,9.3 91.04,5.92 L90.52,5.6 L90.52,3.48 L133.79,3.48 C139.3,3.48 145,3.48 151.16,6.7 C159.54,11.16 163.97,18.58 163.97,28.15 C163.97,37.32 158.08,45.39 148.13,49.94 L163.81,75.67 C166.67,80.34 172.26,86.11 179.97,92.36 L182.38,94.36 L157.24,94.32 Z M123.88,46.73 C131.198307,45.0021775 136.404001,38.5187602 136.51,31 C136.51,26.63 134.59,22.59 131.51,20.45 C129.36,18.96 126.59,18.76 124.17,18.76 L123.9,18.76 L123.88,46.73 Z" id="Shape" fill-rule="nonzero"></path>
                        <path d="M133.79,4.58 C139.79,4.58 144.95,4.69 150.65,7.68 C158.75,11.99 162.87,19.13 162.87,28.16 C162.87,38.26 155.59,45.67 146.53,49.45 L162.87,76.26 C166.58,82.32 173.79,88.79 179.28,93.26 L157.28,93.26 C147.85,92.86 143.55,92.99 138.75,84.64 L122.82,55.27 L122.82,74 C122.82,81 121.82,88.68 128.59,92.86 L128.59,93.26 L91.62,93.26 L91.62,92.86 C98.35,88.68 97.39,81 97.39,74 L97.39,23.84 C97.39,16.84 98.39,9.16 91.62,4.98 L91.62,4.58 L133.79,4.58 L133.79,4.58 Z M122.79,48.09 C131.227865,46.7538395 137.481749,39.5420395 137.61,31 C137.61,26.69 135.83,22.11 132.12,19.55 C129.79,17.93 126.9,17.66 124.12,17.66 L122.75,17.66 L122.75,48.11 L122.79,48.09 Z M133.75,2.4 L89.42,2.4 L89.42,6.23 L90.42,6.88 C95.34,9.94 95.26,15.29 95.17,21.49 C95.17,22.29 95.17,23.08 95.17,23.87 L95.17,74 C95.17,74.79 95.17,75.58 95.17,76.38 C95.26,82.58 95.34,87.94 90.42,90.99 L89.42,91.64 L89.42,95.47 L130.75,95.47 L130.75,91.6 L129.75,90.95 C124.83,87.89 124.91,82.54 125,76.34 C125,75.54 125,74.75 125,73.96 L125,63.91 L136.79,85.65 L136.79,85.65 C142.02,94.74 147.32,94.96 156.11,95.33 L157.11,95.33 L185.5,95.33 L180.67,91.42 C173.05,85.25 167.55,79.58 164.75,75.01 L149.75,50.32 C159.42,45.51 165.12,37.32 165.12,28.06 C165.12,18.06 160.49,10.3 151.74,5.64 C145.33,2.28 139.49,2.28 133.84,2.28 L133.75,2.4 Z M125,45.26 L125,19.86 C127.061231,19.7806017 129.101968,20.2942564 130.88,21.34 C133.68,23.28 135.42,26.97 135.42,30.98 C135.34715,37.4749825 131.163079,43.2090079 125,45.26 Z" id="Shape" fill-rule="nonzero"></path>
                        <path d="M245,94.32 L245,92.21 L245.51,91.88 C248.6,89.88 250.63,88.32 250.63,84.59 C250.674177,82.9950944 250.331044,81.4132524 249.63,79.98 L249.63,79.87 L245.34,67.51 L219.66,67.51 L216.58,76.09 C215.64,78.72 214.22,82.68 214.22,85.27 C214.22,88.27 216.02,89.74 218.29,91.58 L219.16,92.29 L219.16,94.29 L188.82,94.29 L188.82,92.29 L189.18,91.96 C194.18,87.42 195.91,83.72 198.35,76.96 L217.29,23.21 C217.49,22.54 217.8,21.65 218.15,20.68 C219.04,18.16 220.25,14.68 220.25,12.8 C220.25,10.15 218.75,7.96 215.54,5.91 L215.03,5.59 L215.03,3.48 L250.53,3.48 L276.74,73.57 L277.54,75.67 C280.2,82.73 281.3,85.67 288.26,92 L288.62,92.33 L288.62,94.33 L245,94.32 Z M240,52.78 L232,30.48 L224.39,52.78 L240,52.78 Z" id="Shape" fill-rule="nonzero"></path>
                        <path d="M249.77,4.58 L275.72,74 C279.01,82.62 279.72,85.72 287.53,92.86 L287.53,93.26 L246.07,93.26 L246.07,92.86 C249.23,90.86 251.7,88.95 251.7,84.64 C251.746547,82.8700638 251.369404,81.1146344 250.6,79.52 L246.07,66.45 L218.88,66.45 L215.59,75.61 C214.59,78.3 213.12,82.48 213.12,85.31 C213.12,89.08 215.59,90.83 218.06,92.85 L218.06,93.25 L189.92,93.25 L189.92,92.85 C195.14,88.14 196.92,84.23 199.39,77.36 L218.34,23.61 C219.16,20.92 221.34,15.66 221.34,12.83 C221.34,9.19 218.87,6.77 216.12,5.02 L216.12,4.62 L249.75,4.62 L249.77,4.58 Z M222.84,53.93 L241.51,53.93 L232.04,27.39 L231.9,27.39 L222.84,53.93 L222.84,53.93 Z M251.3,2.38 L213.94,2.38 L213.94,6.19 L214.94,6.84 C217.81,8.67 219.14,10.56 219.14,12.84 C219.14,14.56 217.96,17.91 217.14,20.35 C216.81,21.3 216.49,22.19 216.27,22.93 L197.31,76.6 C194.93,83.22 193.31,86.82 188.44,91.19 L187.72,91.85 L187.72,95.43 L220.26,95.43 L220.26,91.78 L219.45,91.12 L218.98,90.74 C216.57,88.74 215.32,87.66 215.32,85.28 C215.32,82.9 216.75,78.87 217.61,76.47 L217.66,76.32 L220.43,68.62 L244.5,68.62 L248.5,80.21 L248.5,80.28 L248.5,80.39 C249.146238,81.700259 249.458829,83.1498568 249.41,84.61 C249.41,87.69 247.93,88.97 244.8,90.97 L243.8,91.62 L243.8,95.43 L289.66,95.43 L289.66,91.85 L288.94,91.2 C282.18,85.03 281.1,82.2 278.51,75.29 L277.71,73.18 L251.83,3.81 L251.3,2.38 L251.3,2.38 Z M225.94,51.69 L232.04,33.83 L238.42,51.69 L225.94,51.69 Z" id="Shape" fill-rule="nonzero"></path>
                        <path d="M323.31,96.44 C318.04,94.78 312.6,93.06 307.89,90.27 C300.03,85.64 297.89,81.62 294.79,73.55 L273.92,17.09 C272.38,12.67 270.92,9.09 267.47,5.79 L267.13,5.46 L267.13,3.46 L300.36,3.46 L300.36,5.1 L300.22,5.77 C300.22,8.77 302.32,14.59 303.69,18.45 C303.97,19.23 304.22,19.94 304.42,20.53 L320.78,67.06 L336,21.34 L336.3,20.46 C337.158626,18.361012 337.684939,16.141049 337.86,13.88 C337.86,9.97 335.66,7.88 332.36,5.94 L331.82,5.62 L331.82,3.48 L358.59,3.48 L358.59,5.17 L326.46,97.43 L323.31,96.44 Z" id="Shape" fill-rule="nonzero"></path>
                        <path d="M357.46,4.58 L357.46,5 L325.75,96.07 C319.85,94.18 313.67,92.43 308.45,89.33 C300.9,84.88 298.84,81.11 295.82,73.16 L275,16.7 C273.35,11.98 271.84,8.35 268.27,4.98 L268.27,4.58 L299.27,4.58 L299.27,5 L299.13,5.67 C299.13,9.44 302.13,17.26 303.39,20.89 L320.83,70.47 L337,21.69 C337.82,19.27 338.92,16.44 338.92,13.88 C338.92,9.43 336.31,7.01 332.92,4.99 L332.92,4.59 L357.49,4.59 L357.46,4.58 Z M359.69,2.39 L330.69,2.39 L330.69,6.25 L331.77,6.89 C335.38,9.02 336.77,10.89 336.77,13.89 C336.589091,16.0275289 336.083277,18.1249714 335.27,20.11 L334.97,20.99 L320.79,63.67 L305.49,20.16 C305.29,19.58 305.04,18.87 304.77,18.09 C303.53,14.57 301.46,8.74 301.37,5.87 L301.46,5.43 L301.46,5.21 L301.46,2.38 L266,2.38 L266,5.93 L266.69,6.58 C269.97,9.68 271.31,13.03 272.85,17.43 L293.73,73.91 C296.83,82.06 299.17,86.42 307.31,91.21 C312.12,94.07 317.63,95.8 322.96,97.48 L325.06,98.14 L327.06,98.79 L327.77,96.79 L359.48,5.72 L359.6,5.37 L359.6,2.37 L359.69,2.39 Z" id="Shape" fill-rule="nonzero"></path>
                        <path d="M371.54,94.32 L371.54,92.2 L372.06,91.88 C377.51,88.49 377.42,82.64 377.33,76.45 C377.33,75.66 377.33,74.87 377.33,74.09 L377.33,23.84 C377.33,23.06 377.33,22.27 377.33,21.48 C377.42,15.22 377.51,9.3 372.06,5.92 L371.54,5.6 L371.54,3.48 L410.67,3.48 L410.67,5.6 L410.15,5.92 C404.7,9.31 404.79,15.22 404.88,21.48 C404.88,22.27 404.88,23.06 404.88,23.84 L404.88,74.09 C404.88,74.87 404.88,75.66 404.88,76.45 C404.79,82.64 404.7,88.45 410.15,91.88 L410.67,92.2 L410.67,94.32 L371.54,94.32 Z" id="Shape" fill-rule="nonzero"></path>
                        <path d="M409.57,4.58 L409.57,5 C402.84,9.18 403.8,16.86 403.8,23.86 L403.8,74.11 C403.8,81.11 402.8,88.66 409.57,92.84 L409.57,93.24 L372.64,93.24 L372.64,92.84 C379.37,88.66 378.41,81.12 378.41,74.11 L378.41,23.84 C378.41,16.84 379.41,9.16 372.64,4.98 L372.64,4.58 L409.57,4.58 L409.57,4.58 Z M411.77,2.38 L370.44,2.38 L370.44,6.21 L371.44,6.86 C376.36,9.92 376.28,15.27 376.19,21.47 C376.19,22.27 376.19,23.06 376.19,23.85 L376.19,74.1 C376.19,74.89 376.19,75.68 376.19,76.48 C376.28,82.61 376.36,87.9 371.44,90.96 L370.44,91.61 L370.44,95.44 L411.77,95.44 L411.77,91.6 L410.77,90.95 C405.85,87.89 405.93,82.6 406.02,76.47 C406.02,75.67 406.02,74.88 406.02,74.09 L406.02,23.84 C406.02,23.05 406.02,22.26 406.02,21.46 C405.93,15.26 405.85,9.9 410.77,6.85 L411.77,6.2 L411.77,2.38 L411.77,2.38 Z" id="Shape" fill-rule="nonzero"></path>
                        <path d="M452.93,96.08 C443.705605,96.0965315 434.55566,94.429208 425.93,91.16 L425.38,90.95 L420,67.86 L422.49,69.86 C430.23,76.1 441.27,80.12 450.63,80.12 C453.79,80.12 464.08,79.51 464.08,71.65 C464.08,65.38 456.85,62.12 448.49,58.34 C436.78,53.05 422.21,46.48 422.21,28.4 C422.278882,20.2988225 426.214163,12.7181109 432.8,8 C439.19,3.57 447.44,1.33 457.32,1.33 C465.317413,1.31181148 473.255464,2.70308615 480.77,5.44 L481.48,5.71 L481.48,24.23 L479.79,23.17 C473.4,19.17 466.91,17.01 461.02,17.01 C457.02,17.01 450.18,18.59 450.18,24.53 C450.18,29.63 456.18,32.08 460.98,34.05 L462.56,34.7 L463.27,35.01 C469.65,37.75 475.68,40.33 481.1,45.01 C488.39,51.27 491.64,57.8 491.64,66.19 C491.805304,75.1861646 487.525621,83.6856748 480.2,88.91 C471.34,95.2 461.86,96.08 452.93,96.08 Z" id="Shape" fill-rule="nonzero"></path>
                        <path d="M457.32,2.42 C465.181816,2.39006043 472.98755,3.74404726 480.38,6.42 L480.38,22.18 C474.61,18.54 467.89,15.85 461.02,15.85 C455.67,15.85 449.08,18.14 449.08,24.47 C449.08,30.8 457.08,33.47 462.08,35.65 C468.67,38.48 474.85,41.04 480.34,45.75 C486.93,51.41 490.5,57.47 490.5,66.09 C490.664311,74.7341803 486.547084,82.9012616 479.5,87.91 C471.4,93.7 462.61,94.91 452.87,94.91 C443.77287,94.9193528 434.74971,93.2760061 426.24,90.06 L421.71,70.66 C429.4,76.86 440.66,81.17 450.54,81.17 C456.72,81.17 465.09,79.17 465.09,71.6 C465.09,55.16 423.22,58.53 423.22,28.36 C423.263388,20.5935637 427.04541,13.3235941 433.38,8.83 C440.38,3.98 448.89,2.36 457.27,2.36 L457.32,2.42 Z M457.27,0.16 C447.16,0.16 438.7,2.47 432.13,7.02 C425.223703,11.9443744 421.093209,19.8781932 421.02,28.36 C421.02,47.14 435.95,53.88 447.95,59.3 C455.95,62.92 462.89,66.05 462.89,71.6 C462.89,73.33 462,78.97 450.54,78.97 C441.42,78.97 430.64,75.04 423.09,68.97 L418.09,64.97 L419.54,71.19 L424.07,90.59 L424.34,91.73 L425.43,92.15 C434.186057,95.4715464 443.475122,97.1660129 452.84,97.15 C461.95,97.15 471.64,96.25 480.75,89.73 C488.366943,84.303534 492.818894,75.4707123 492.65,66.12 C492.65,57.39 489.28,50.6 481.72,44.12 C476.17,39.36 470.07,36.74 463.61,33.97 L462.9,33.66 L461.3,33 C455.77,30.73 451.19,28.53 451.19,24.5 C451.149698,22.4825414 452.269244,20.6205176 454.07,19.71 C456.202823,18.585543 458.589902,18.0309692 461,18.1 C466.68,18.1 473,20.17 479.18,24.1 L482.55,26.23 L482.55,4.94 L481.13,4.4 C473.490656,1.61676279 465.420539,0.201784249 457.29,0.22 L457.27,0.16 Z" id="Shape" fill-rule="nonzero"></path>
                        <path d="M3.39001465,109.46 L490.540015,109.46 L490.540015,167.18 L3.39001465,167.18 L3.39001465,109.46 Z M36.7400146,147.76 L36.7700146,140.91 L42.7700146,151.66 C44.5800146,154.71 46.2300146,155.16 49.6900146,154.96 L56.8200146,154.52 C54.8217996,152.852411 53.1297753,150.849054 51.8200146,148.6 L45.6700146,138.79 C49.0800146,137.41 51.8200146,134.7 51.8200146,131 C51.9224977,127.805578 50.1138427,124.856684 47.2200146,123.5 C44.9000146,122.37 42.8300146,122.37 40.3000146,122.37 L25.0000146,122.37 L25.0000146,122.52 C27.5300146,124.05 27.1700146,126.86 27.1700146,129.42 L27.1700146,147.76 C27.1700146,150.32 27.5300146,153.13 25.0000146,154.66 L25.0000146,154.81 L38.9100146,154.81 L38.9100146,154.66 C36.3800146,153.13 36.7400146,150.32 36.7400146,147.76 Z M36.7400146,127.15 L37.2500146,127.16 C38.2963998,127.086304 39.3409719,127.326555 40.2500146,127.85 C41.5904442,128.818424 42.3653535,130.38696 42.3200146,132.04 C42.2388272,135.209542 39.879421,137.856474 36.7400146,138.3 L36.7400146,127.15 Z M78.3800146,121.58 C67.8900146,121.58 58.9600146,128 58.9600146,138.44 C58.9600146,148.88 67.2800146,155.44 77.7600146,155.44 C88.2400146,155.44 97.1800146,149.3 97.1800146,138.44 C97.1800146,127.58 89.2300146,121.58 78.3800146,121.58 Z M71.3800146,146.28 L71.4000146,146.29 C69.8795955,143.482092 69.0500262,140.352353 68.9800146,137.16 C68.9800146,132.08 71.6600146,126.51 77.7600146,126.51 C84.8400146,126.51 87.1600146,134.55 87.1600146,140.17 C87.3176234,142.619368 86.6447059,145.050327 85.2500146,147.07 C83.6178632,149.221855 81.0807223,150.495965 78.3800146,150.52 C75.4722597,150.406266 72.8276147,148.804367 71.3800146,146.28 Z M122.000015,121.58 C111.540015,121.58 102.580015,128 102.580015,138.44 C102.580015,148.88 110.900015,155.44 121.380015,155.44 C131.860015,155.44 140.800015,149.3 140.800015,138.44 C140.800015,127.58 132.850015,121.58 122.000015,121.58 Z M115.000015,146.28 L115.050015,146.29 C113.519146,143.484712 112.679254,140.354827 112.600015,137.16 C112.600015,132.08 115.280015,126.51 121.380015,126.51 C128.460015,126.51 130.780015,134.55 130.780015,140.17 C130.937623,142.619368 130.264706,145.050327 128.870015,147.07 C127.237863,149.221855 124.700722,150.495965 122.000015,150.52 C119.09226,150.406266 116.447615,148.804367 115.000015,146.28 Z M158.490015,147.62 L158.510015,140.09 L159.510015,140.09 C161.370015,140.09 163.490015,140 164.160015,141.87 L164.420015,141.87 L164.420015,134.97 L164.160015,134.97 C163.544267,135.170646 162.89666,135.255412 162.250015,135.22 L158.480015,135.22 L158.480015,127.22 L160.130015,127.22 C162.660015,127.22 165.600015,126.9 167.000015,129.22 L167.170015,129.22 L167.170015,122.07 L167.010015,122.07 C166.31775,122.329175 165.576631,122.431634 164.840015,122.37 L146.760015,122.37 L146.760015,122.52 C149.290015,124 148.930015,126.81 148.930015,129.37 L148.930015,147.77 C148.930015,150.38 149.290015,153.14 146.760015,154.67 L146.760015,154.82 L160.760015,154.82 L160.760015,154.67 C158.540015,152.7 158.490015,150.48 158.490015,147.62 Z M184.580015,147.81 L184.580015,129.42 C184.580015,126.86 184.220015,124.05 186.750015,122.52 L186.750015,122.37 L172.850015,122.37 L172.850015,122.52 C175.380015,124.05 175.020015,126.86 175.020015,129.42 L175.020015,147.81 C175.020015,150.37 175.380015,153.13 172.850015,154.66 L172.850015,154.81 L186.750015,154.81 L186.750015,154.66 C184.220015,153.14 184.580015,150.37 184.580015,147.81 Z M224.670015,155.85 L224.630015,129.57 C224.630015,126.71 224.680015,124.52 226.900015,122.52 L226.900015,122.37 L216.980015,122.37 L216.980015,122.52 C219.200015,124.57 219.250015,126.71 219.250015,129.57 L219.250015,142.3 L203.390015,122.48 L203.390015,122.33 L192.640015,122.33 L192.640015,122.48 C195.430015,125.44 195.640015,126.77 195.640015,130.57 L195.640015,147.57 C195.640015,150.43 195.590015,152.62 193.320015,154.62 L193.320015,154.77 L203.320015,154.77 L203.320015,154.62 C201.100015,152.57 201.050015,150.43 201.050015,147.57 L201.050015,134.57 L201.210015,134.57 L211.130015,147.19 C213.670015,150.35 214.650015,152.03 218.470015,153.85 C220.020015,154.62 222.860015,155.85 224.670015,155.85 Z M262.840015,153.93 L262.810015,138 L251.960015,138 L251.960015,138.11 C253.860015,139.49 253.960015,140.67 253.960015,142.89 L253.960015,150.19 C253.277365,150.313885 252.583393,150.364173 251.890015,150.34 C244.400015,150.34 242.180015,143.23 242.180015,137.27 C242.180015,131.31 245.070015,126.82 251.790015,126.82 C254.539148,126.826008 257.208599,127.743962 259.380015,129.43 L259.640015,129.43 L259.640015,122.58 C257.027798,121.902189 254.338701,121.566052 251.640015,121.58 C240.940015,121.58 232.420015,128.09 232.420015,138.69 C232.420015,149.64 241.090015,155.46 251.840015,155.46 C255.556984,155.421972 259.253757,154.907784 262.840015,153.93 Z M286.790015,146.58 L288.560015,153.69 C291.762675,154.867005 295.147922,155.469579 298.560015,155.47 C302.210015,155.47 305.560015,155.03 308.560015,152.91 C311.194504,151.107618 312.746391,148.101541 312.690015,144.91 C312.690015,141.75 311.350015,139.53 308.870015,137.46 C306.784344,135.880044 304.466984,134.631975 302.000015,133.76 C300.090015,132.97 297.090015,131.99 297.090015,129.67 C297.090015,127.35 299.580015,126.51 301.580015,126.51 C304.172805,126.605196 306.690227,127.407451 308.860015,128.83 L308.860015,123.06 C306.072613,122.073893 303.136696,121.573299 300.180015,121.58 C297.010982,121.456501 293.877214,122.281726 291.180015,123.95 C288.812868,125.564177 287.385944,128.234991 287.360015,131.1 C287.360015,142.15 303.120015,140.93 303.120015,146.93 C303.120015,149.69 299.960015,150.43 297.640015,150.43 C293.709096,150.316244 289.913447,148.9694 286.790015,146.58 Z M338.550015,150.82 L338.550015,154.81 L350.160015,154.81 L350.160015,154.66 C347.630015,153.13 347.990015,150.32 347.990015,147.76 L347.990015,129.42 C347.990015,126.86 347.630015,124.05 350.160015,122.52 L350.160015,122.37 L336.370015,122.37 L336.370015,122.52 C338.900015,124.05 338.540015,126.86 338.540015,129.42 L338.540015,141.25 C338.540015,144.55 338.180015,149.83 333.480015,149.83 C332.186621,149.852665 330.952057,149.290497 330.120015,148.3 C328.880015,146.68 328.980015,144.8 328.980015,142.88 L328.980015,129.42 C328.980015,126.86 328.620015,124.05 331.150015,122.52 L331.150015,122.37 L317.410015,122.37 L317.410015,122.52 C319.940015,124.05 319.580015,126.86 319.580015,129.42 L319.580015,144.96 C319.580015,147.97 319.740015,150.38 322.010015,152.65 C324.055741,154.542228 326.76486,155.551859 329.550015,155.46 C333.131204,155.490377 336.497557,153.754835 338.550015,150.82 Z M368.050015,147.67 L368.040015,127.24 C372.070015,127.39 373.360015,130.15 373.360015,133.65 C373.418427,136.876519 371.403704,139.777719 368.360015,140.85 C368.976411,140.932293 369.598348,140.96573 370.220015,140.95 C376.680015,140.95 382.880015,138.24 382.880015,131.24 C382.93596,127.923294 381.002338,124.894873 377.970015,123.55 C375.380015,122.37 371.610015,122.37 368.720015,122.37 L356.530015,122.37 L356.530015,122.52 C359.060015,124.05 358.700015,126.86 358.700015,129.42 L358.700015,147.77 C358.700015,150.33 359.060015,153.14 356.530015,154.67 L356.530015,154.82 L370.320015,154.82 L370.320015,154.67 C368.100015,152.67 368.050015,150.48 368.050015,147.67 Z M399.300015,147.67 L399.320015,127.24 C403.350015,127.39 404.640015,130.15 404.640015,133.65 C404.698427,136.876519 402.683704,139.777719 399.640015,140.85 C400.256415,140.932251 400.878349,140.965688 401.500015,140.95 C407.960015,140.95 414.160015,138.24 414.160015,131.24 C414.21596,127.923294 412.282338,124.894873 409.250015,123.55 C406.660015,122.37 402.890015,122.37 400.000015,122.37 L387.780015,122.37 L387.780015,122.52 C390.310015,124.05 389.950015,126.86 389.950015,129.42 L389.950015,147.77 C389.950015,150.33 390.310015,153.14 387.780015,154.67 L387.780015,154.82 L401.570015,154.82 L401.570015,154.67 C399.350015,152.67 399.300015,150.48 399.300015,147.67 Z M431.070015,149.24 L431.070015,129.52 C431.070015,126.86 430.710015,124.05 433.240015,122.52 L433.240015,122.37 L419.340015,122.37 L419.340015,122.52 C421.870015,124.05 421.510015,126.86 421.510015,129.42 L421.510015,147.81 C421.510015,150.37 421.870015,153.13 419.340015,154.66 L419.340015,154.81 L441.830015,154.81 L443.830015,147.91 C441.697224,149.438645 439.111155,150.203191 436.490015,150.08 C434.644624,150.179313 432.798773,149.893241 431.070015,149.24 Z M462.740015,147.62 L462.750015,140.08 L472.000015,122.48 L472.000015,122.33 L462.700015,122.33 L462.700015,122.48 C463.736919,122.91797 464.380156,123.967251 464.300015,125.09 C464.136526,126.291947 463.731753,127.448441 463.110015,128.49 L460.220015,134.11 L454.220015,122.47 L454.220015,122.32 L442.220015,122.32 L442.220015,122.47 C443.645346,123.398787 444.773512,124.717873 445.470015,126.27 L453.170015,140.08 L453.170015,147.67 C453.170015,150.28 453.530015,153.14 451.000015,154.67 L451.000015,154.82 L465.010015,154.82 L465.010015,154.67 C462.790015,152.62 463.302478,151.251121 462.740015,147.62 Z" id="Combined-Shape" fill-rule="nonzero"></path>
                    </g>
                </g>
            </g>
        </g>
    </g>
</svg>